<svg xmlns="http://www.w3.org/2000/svg" xmlns:xlink="http://www.w3.org/1999/xlink" width="24" height="25" viewBox="0 0 24 25">
  <defs>
    <clipPath id="clip-Artboard_1">
      <rect width="24" height="25"/>
    </clipPath>
  </defs>
  <g id="Artboard_1" data-name="Artboard – 1" clip-path="url(#clip-Artboard_1)">
    <rect width="24" height="25" fill="#fff"/>
    <g id="Group_459" data-name="Group 459" transform="translate(2.084 3)">
      <path id="Path_45" data-name="Path 45" d="M3470.693,1181.061a1.215,1.215,0,0,1-.7-.226c-.325-.233-.653-.462-.975-.7a.206.206,0,0,0-.239-.019c-.332.147-.666.29-1.005.416a.266.266,0,0,0-.2.239c-.067.42-.132.842-.223,1.257a1.133,1.133,0,0,1-1.077.879q-.889.015-1.778,0a1.161,1.161,0,0,1-1.113-.995q-.1-.559-.186-1.121a.28.28,0,0,0-.21-.263c-.327-.116-.645-.258-.963-.4a.193.193,0,0,0-.224.019c-.313.231-.633.454-.952.678a1.175,1.175,0,0,1-1.622-.132q-.549-.543-1.091-1.092a1.174,1.174,0,0,1-.141-1.6c.218-.317.443-.628.673-.936a.2.2,0,0,0,.026-.237c-.151-.33-.3-.662-.424-1a.277.277,0,0,0-.252-.2c-.43-.071-.862-.137-1.286-.234a1.125,1.125,0,0,1-.855-1.063q-.017-.9,0-1.793a1.174,1.174,0,0,1,1.035-1.112c.385-.06.769-.123,1.152-.195a.222.222,0,0,0,.14-.116q.235-.551.449-1.11a.22.22,0,0,0-.019-.177c-.229-.335-.469-.661-.7-.994a1.14,1.14,0,0,1,.075-1.514c.42-.453.863-.887,1.319-1.3a1.108,1.108,0,0,1,1.348-.081c.359.238.706.5,1.054.75a.179.179,0,0,0,.209.022c.335-.151.672-.3,1.016-.431a.278.278,0,0,0,.2-.253c.068-.425.134-.852.229-1.271a1.134,1.134,0,0,1,1.085-.87q.88-.013,1.762,0a1.171,1.171,0,0,1,1.121,1.007c.064.384.13.768.19,1.152a.21.21,0,0,0,.155.184q.552.212,1.093.45a.205.205,0,0,0,.238-.025q.472-.345.952-.678a1.138,1.138,0,0,1,1.513.076c.451.414.881.854,1.293,1.306a1.1,1.1,0,0,1,.092,1.347c-.234.361-.492.707-.746,1.057a.2.2,0,0,0-.024.237c.148.331.29.666.416,1.006a.279.279,0,0,0,.253.2c.42.067.841.133,1.256.223a1.119,1.119,0,0,1,.86,1.042q.018.912,0,1.824a1.161,1.161,0,0,1-.994,1.1q-.575.1-1.153.189a.244.244,0,0,0-.22.177c-.13.344-.272.684-.422,1.02a.216.216,0,0,0,.025.251q.346.471.679.952a1.139,1.139,0,0,1-.072,1.5c-.417.455-.869.879-1.314,1.307A1.035,1.035,0,0,1,3470.693,1181.061Zm-8.824-2.171c.152.064.285.108.406.174a6.138,6.138,0,0,0,1.4.564.649.649,0,0,1,.522.6c.07.477.156.953.229,1.43a.192.192,0,0,0,.227.191c.478-.007.957,0,1.435,0,.216,0,.229-.017.265-.233.08-.492.167-.983.247-1.475a.563.563,0,0,1,.44-.49,6.144,6.144,0,0,0,1.549-.638.628.628,0,0,1,.765.052c.392.291.8.565,1.19.854a.187.187,0,0,0,.292-.02q.51-.526,1.036-1.037a.2.2,0,0,0,.028-.306c-.286-.389-.555-.791-.844-1.178a.645.645,0,0,1-.051-.792,5.477,5.477,0,0,0,.608-1.461.665.665,0,0,1,.622-.536c.473-.067.942-.154,1.415-.226a.194.194,0,0,0,.189-.23c-.006-.473,0-.946,0-1.419,0-.23-.015-.241-.237-.277-.482-.078-.962-.166-1.444-.24a.6.6,0,0,1-.527-.479,5.618,5.618,0,0,0-.608-1.478.669.669,0,0,1,.051-.832c.289-.381.554-.779.836-1.165a.19.19,0,0,0-.027-.294c-.343-.333-.678-.674-1.016-1.012-.159-.159-.161-.159-.349-.023-.383.277-.771.547-1.149.83a.618.618,0,0,1-.764.054,2.654,2.654,0,0,0-.428-.221q-.573-.221-1.153-.419a.607.607,0,0,1-.456-.514c-.077-.5-.168-.993-.246-1.49-.022-.139-.081-.2-.224-.193-.468.006-.936,0-1.4,0-.261,0-.261,0-.3.261-.078.476-.163.952-.24,1.428a.606.606,0,0,1-.479.529,6.02,6.02,0,0,0-1.516.638.62.62,0,0,1-.751-.043c-.388-.287-.789-.558-1.178-.845-.127-.094-.21-.1-.328.021-.334.349-.678.689-1.025,1.025a.2.2,0,0,0-.02.307c.286.39.555.791.846,1.177a.657.657,0,0,1,.053.806,5.546,5.546,0,0,0-.6,1.466.645.645,0,0,1-.6.521c-.477.069-.952.158-1.429.234a.184.184,0,0,0-.182.217q.01.741,0,1.481c0,.147.061.2.2.22.5.079.993.17,1.49.249a.6.6,0,0,1,.533.475,6.053,6.053,0,0,0,.637,1.517.622.622,0,0,1-.039.751c-.292.4-.571.806-.863,1.2a.188.188,0,0,0,.026.293c.346.337.689.678,1.024,1.027a.2.2,0,0,0,.318.03q.6-.439,1.205-.859A3.034,3.034,0,0,1,3461.869,1178.89Z" transform="translate(-3455.865 -1163.883)" fill="#393939"/>
      <path id="Path_46" data-name="Path 46" d="M3637.692,1341.4a4.1,4.1,0,1,1-4.1-4.109A4.114,4.114,0,0,1,3637.692,1341.4Zm-4.1-3.033a3.03,3.03,0,1,0,3.028,3.023A3.035,3.035,0,0,0,3633.588,1338.366Z" transform="translate(-3624.067 -1331.881)" fill="#393939"/>
    </g>
  </g>
</svg>
