<svg xmlns="http://www.w3.org/2000/svg" xmlns:xlink="http://www.w3.org/1999/xlink" width="23" height="26" viewBox="0 0 23 26">
  <defs>
    <clipPath id="clip-Artboard_2">
      <rect width="23" height="26"/>
    </clipPath>
  </defs>
  <g id="Artboard_2" data-name="Artboard – 2" clip-path="url(#clip-Artboard_2)">
    <rect width="23" height="26" fill="#fff"/>
    <g id="Group_460" data-name="Group 460" transform="translate(-1044 -127.316)">
      <path id="Path_3367" data-name="Path 3367" d="M-169.89-982.628a11.567,11.567,0,0,0,7.6-2.858,11.009,11.009,0,0,0,3.512,2.111,11.628,11.628,0,0,0,4.069.742c0,.431,0,.846,0,1.261-.008,2.748-.021,5.5-.023,8.243a4.161,4.161,0,0,1-.866,2.488,11.034,11.034,0,0,1-2.4,2.308,32.787,32.787,0,0,1-4.186,2.586.288.288,0,0,1-.232,0,33.944,33.944,0,0,1-4.331-2.66,10.551,10.551,0,0,1-2.315-2.218,4.272,4.272,0,0,1-.84-2.6c.013-3.037.008-6.073.01-9.11C-169.89-982.428-169.89-982.521-169.89-982.628Zm7.525,5.363c-.786,0-1.573-.007-2.359,0a1.253,1.253,0,0,0-1.316,1.328q0,2.136,0,4.273a1.242,1.242,0,0,0,1.3,1.339q2.409.018,4.819,0a1.222,1.222,0,0,0,1.248-1.283q0-2.167,0-4.333a1.515,1.515,0,0,0-.024-.32,1.241,1.241,0,0,0-1.293-1C-160.779-977.271-161.572-977.265-162.365-977.265Zm2.344-.87a12.683,12.683,0,0,0-.011-1.594,2.3,2.3,0,0,0-2.274-1.922,2.306,2.306,0,0,0-2.351,1.876,11.9,11.9,0,0,0-.044,1.507.938.938,0,0,0,.017.137h.818c0-.079.01-.152.01-.224,0-.343,0-.685,0-1.028a1.483,1.483,0,0,1,1.479-1.439,1.487,1.487,0,0,1,1.536,1.424c0,.356,0,.712,0,1.068,0,.064.006.129.01.195Z" transform="translate(1218.228 1116.039)" fill="#f8f8f8" stroke="#404a57" stroke-width="1"/>
      <path id="Path_3368" data-name="Path 3368" d="M-70.619-781.651c.951,0,1.9-.007,2.852,0a1.491,1.491,0,0,1,1.55,1.21,1.849,1.849,0,0,1,.029.387q0,2.621,0,5.241a1.471,1.471,0,0,1-1.5,1.551q-2.889.026-5.777,0a1.5,1.5,0,0,1-1.56-1.62q0-2.584,0-5.168a1.509,1.509,0,0,1,1.578-1.606C-72.5-781.659-71.561-781.651-70.619-781.651Zm-.25,5.052c0,.081,0,.162,0,.243s0,.178,0,.268c0,.253.12.4.317.41s.334-.141.337-.413c0-.3.01-.6,0-.9A.384.384,0,0,1-70-777.4a.934.934,0,0,0,.406-1.057.969.969,0,0,0-.9-.727.973.973,0,0,0-.964.64.9.9,0,0,0,.308,1.086.552.552,0,0,1,.285.613A2.126,2.126,0,0,0-70.869-776.6Z" transform="translate(1126.489 919.491)" fill="#404a57" stroke="#f8f8f8" stroke-width="1"/>
      <path id="Path_3369" data-name="Path 3369" d="M-36.551-886.132h-.971c0-.08-.012-.158-.012-.236,0-.431,0-.861,0-1.292a1.79,1.79,0,0,0-1.842-1.723,1.786,1.786,0,0,0-1.774,1.741c0,.414,0,.829,0,1.243,0,.087-.008.175-.012.271h-.98a1.142,1.142,0,0,1-.021-.165,14.525,14.525,0,0,1,.052-1.823,2.771,2.771,0,0,1,2.819-2.27,2.77,2.77,0,0,1,2.726,2.325A15.481,15.481,0,0,1-36.551-886.132Z" transform="translate(1095.226 1024.6)" fill="#404a57"/>
      <path id="Path_3370" data-name="Path 3370" d="M-2.621-728.37a2.151,2.151,0,0,1,0-.243.552.552,0,0,0-.285-.613.9.9,0,0,1-.308-1.086.973.973,0,0,1,.964-.64.969.969,0,0,1,.9.727.935.935,0,0,1-.406,1.058.383.383,0,0,0-.216.4c.013.3.006.6,0,.9,0,.272-.128.421-.337.414s-.313-.157-.317-.41c0-.089,0-.179,0-.268S-2.621-728.288-2.621-728.37Z" transform="translate(1058.221 871.398)" fill="#fff"/>
    </g>
  </g>
</svg>
