<svg xmlns="http://www.w3.org/2000/svg" xmlns:xlink="http://www.w3.org/1999/xlink" width="21" height="25" viewBox="0 0 21 25">
  <defs>
    <clipPath id="clip-Artboard_3">
      <rect width="21" height="25"/>
    </clipPath>
  </defs>
  <g id="Artboard_3" data-name="Artboard – 3" clip-path="url(#clip-Artboard_3)">
    <rect width="21" height="25" fill="#fff"/>
    <g id="Group_461" data-name="Group 461" transform="translate(-1046 -175)">
      <path id="Path_3357" data-name="Path 3357" d="M-843.4-1346.937c.41,0,.775,0,1.141,0,.425,0,.578.189.52.614a2.043,2.043,0,0,1-2.171,1.872q-4.227.008-8.455,0c-.5,0-.994.011-1.49-.007a2.015,2.015,0,0,1-1.982-2.053q0-6.252,0-12.5v-.354h-1.73c-.378,0-.756.006-1.134,0-.316-.007-.446-.148-.449-.462a2.044,2.044,0,0,1,2.135-2.045c2.743-.01,5.485,0,8.228,0q1.6,0,3.207,0a2.07,2.07,0,0,1,2.185,2.2q0,6.188,0,12.374Zm-.838,0v-.514q0-6.1,0-12.209a1.241,1.241,0,0,0-1.387-1.373q-4.744,0-9.489,0a1.333,1.333,0,0,0-.169.014,6.532,6.532,0,0,1,.272,1.261c.03,1.781.012,3.562.011,5.344q0,3.935,0,7.87a1.19,1.19,0,0,0,1.139,1.245,1.2,1.2,0,0,0,1.327-1.087c.049-.5.105-.551.625-.552h7.671Zm-7.805,1.642h2.2q3,0,5.992,0a1.107,1.107,0,0,0,1.151-.8h-4.177c-1.522,0-3.045,0-4.567,0-.1,0-.255.034-.3.1A5.769,5.769,0,0,0-852.042-1345.3Zm-3.921-14.926a1.171,1.171,0,0,0-1.113-.811,1.154,1.154,0,0,0-1.122.811Z" transform="translate(1907.031 1541.672)" fill="#404a57" stroke="#404a57" stroke-width="0.2"/>
      <path id="Path_3358" data-name="Path 3358" d="M-777.985-1309.841c-1.327,0-2.654,0-3.98,0-.386,0-.565-.146-.559-.43s.183-.423.569-.425c.874,0,1.748,0,2.621,0q2.605,0,5.21,0a.878.878,0,0,1,.441.046.612.612,0,0,1,.274.406c0,.123-.159.273-.281.369-.071.055-.207.034-.314.034Q-775.995-1309.839-777.985-1309.841Z" transform="translate(1835.368 1493.808)" fill="#404a57" stroke="#404a57" stroke-width="0.2"/>
      <path id="Path_3359" data-name="Path 3359" d="M-778.1-1182.684c1.327,0,2.653,0,3.98.006a.729.729,0,0,1,.47.143.47.47,0,0,1,.066.437.549.549,0,0,1-.393.255c-.559.031-1.121.017-1.682.017-2.136,0-4.271,0-6.407-.008a.777.777,0,0,1-.516-.181.4.4,0,0,1,.308-.656c.332-.027.668-.014,1-.014h3.171Z" transform="translate(1835.508 1374.089)" fill="#404a57" stroke="#404a57" stroke-width="0.2"/>
      <path id="Path_3360" data-name="Path 3360" d="M-777.587-1259.239q2.006,0,4.012,0c.215,0,.413.019.492.269.1.327-.092.572-.483.575-1.057.006-2.114,0-3.171,0-1.628,0-3.257,0-4.885-.009a.686.686,0,0,1-.459-.16.457.457,0,0,1-.053-.435.614.614,0,0,1,.439-.232c1.207-.019,2.415-.01,3.623-.011Z" transform="translate(1835.036 1445.681)" fill="#404a57" stroke="#404a57" stroke-width="0.2"/>
      <path id="Path_3361" data-name="Path 3361" d="M-777.939-1233.037h-4.044c-.212,0-.414-.012-.5-.263-.107-.328.087-.577.476-.579.981-.007,1.963,0,2.944,0h5.08c.054,0,.108,0,.162,0,.289.024.458.192.44.452-.019.277-.182.394-.452.393-.766,0-1.531,0-2.3,0h-1.812Z" transform="translate(1835.352 1421.967)" fill="#404a57" stroke="#404a57" stroke-width="0.2"/>
      <path id="Path_3362" data-name="Path 3362" d="M-778-1207.21q-2.006,0-4.012,0c-.384,0-.584-.216-.506-.527.065-.259.253-.313.493-.313q2.637.006,5.274,0l2.815,0c.36,0,.537.136.539.407s-.189.431-.558.432H-778Z" transform="translate(1835.378 1397.808)" fill="#404a57" stroke="#404a57" stroke-width="0.2"/>
      <path id="Path_3363" data-name="Path 3363" d="M-777.957-1284.124c-1.348,0-2.7,0-4.045,0-.276,0-.467-.085-.5-.378s.159-.462.516-.463q2.54,0,5.08,0c1.014,0,2.028,0,3.042,0,.362,0,.546.21.475.522-.06.264-.248.317-.487.317-1.359,0-2.718,0-4.077,0Z" transform="translate(1835.354 1469.738)" fill="#404a57" stroke="#404a57" stroke-width="0.2"/>
      <path id="Path_3364" data-name="Path 3364" d="M-754.619-1335.176c-.594,0-1.188,0-1.781,0-.353,0-.528-.15-.523-.429s.166-.408.505-.408q1.8,0,3.6,0c.307,0,.474.147.479.4s-.181.429-.494.432C-753.432-1335.173-754.025-1335.176-754.619-1335.176Z" transform="translate(1811.426 1517.481)" fill="#404a57" stroke="#404a57" stroke-width="0.2"/>
      <path id="Path_3365" data-name="Path 3365" d="M-781.186-1156.159h-.841a.373.373,0,0,1-.409-.4.375.375,0,0,1,.384-.429q.857-.02,1.715,0a.371.371,0,0,1,.389.421.369.369,0,0,1-.4.41C-780.625-1156.154-780.905-1156.159-781.186-1156.159Z" transform="translate(1835.285 1350.065)" fill="#404a57" stroke="#404a57" stroke-width="0.2"/>
      <path id="Path_3366" data-name="Path 3366" d="M-678.739-1156.175c-.28,0-.561,0-.841,0a.366.366,0,0,1-.4-.407.37.37,0,0,1,.386-.423q.857-.021,1.714,0a.376.376,0,0,1,.385.428.373.373,0,0,1-.406.4C-678.178-1156.173-678.458-1156.175-678.739-1156.175Z" transform="translate(1739.465 1350.08)" fill="#404a57" stroke="#404a57" stroke-width="0.2"/>
    </g>
  </g>
</svg>
