<svg xmlns="http://www.w3.org/2000/svg" xmlns:xlink="http://www.w3.org/1999/xlink" width="20" height="21" viewBox="0 0 20 21">
  <defs>
    <clipPath id="clip-Artboard_4">
      <rect width="20" height="21"/>
    </clipPath>
  </defs>
  <g id="Artboard_4" data-name="Artboard – 4" clip-path="url(#clip-Artboard_4)">
    <rect width="20" height="21" fill="#fff"/>
    <g id="Group_462" data-name="Group 462" transform="translate(-1058 -221.935)">
      <path id="Path_2280" data-name="Path 2280" d="M750.089,611.175a8.1,8.1,0,1,1,8.092-8.317A8.1,8.1,0,0,1,750.089,611.175Zm-.012-.811a7.289,7.289,0,0,0,.017-14.578,7.289,7.289,0,1,0-.017,14.578Z" transform="translate(318.122 -370.154)" fill="#393939" stroke="#393939" stroke-width="0.5"/>
      <path id="Path_2281" data-name="Path 2281" d="M802.393,657.274c0,.413.021.821-.012,1.224-.01.122-.153.252-.263.345a2.628,2.628,0,0,0,.872,4.541,2.618,2.618,0,0,0,2.5-4.48.786.786,0,0,1-.346-.753c.027-.286.005-.576.005-.866,1.338.14,2.606,2.064,2.517,3.887a3.889,3.889,0,0,1-3.772,3.619,3.942,3.942,0,0,1-4.007-3.455A3.782,3.782,0,0,1,802.393,657.274Z" transform="translate(264.423 -427.951)" fill="#393939"/>
      <path id="Path_2282" data-name="Path 2282" d="M844.738,642.172c0,.361.01.722,0,1.082a.761.761,0,0,1-.783.8.753.753,0,0,1-.777-.808c-.012-.721-.011-1.443,0-2.164a.783.783,0,1,1,1.562,0c.008.18,0,.361,0,.541s0,.361,0,.541Z" transform="translate(224.245 -412.153)" fill="#393939"/>
    </g>
  </g>
</svg>
