<svg xmlns="http://www.w3.org/2000/svg" viewBox="0 0 38.64 44.04"><defs><style>.a{fill:#e34647;}</style></defs><title>delete</title><path class="a" d="M49.93,25a12,12,0,0,1-.88,1.92,4.12,4.12,0,0,1-3.56,1.84q-14.88,0-29.76,0A4.4,4.4,0,0,1,11.3,24.8a4.5,4.5,0,0,1,3.85-5,6.83,6.83,0,0,1,1.11,0c2.5,0,5,0,7.49,0,.31,0,.43-.08.51-.4a6.47,6.47,0,0,1,12.58-.09c0,.15.08.31.12.49h.53c2.69,0,5.38,0,8.08,0a4.44,4.44,0,0,1,4.27,3.5,1.11,1.11,0,0,0,.09.19Zm-19.3-3.07h-9.8c-1.62,0-3.24,0-4.86,0a2.29,2.29,0,0,0-2.27,3.19,2.36,2.36,0,0,0,2.42,1.42H45a4.89,4.89,0,0,0,.85-.08A2.32,2.32,0,0,0,47.34,23a2.43,2.43,0,0,0-2.18-1.06Zm3.94-2.14a4.07,4.07,0,0,0-4.2-3.13c-1.82.07-3.7,1.57-3.9,3.13Z" transform="translate(-11.28 -14.39)"/><path class="a" d="M20.77,58.42A12,12,0,0,1,19,57.86a6.38,6.38,0,0,1-3.85-6.09q0-9.77,0-19.52c0-1.06.68-1.61,1.55-1.27a1,1,0,0,1,.65.88c0,.17,0,.34,0,.52q0,9.6,0,19.22a4.27,4.27,0,0,0,2.46,4.18,4.4,4.4,0,0,0,1.82.41c6,0,11.92,0,17.88,0A4.22,4.22,0,0,0,43.74,52q0-9.81,0-19.61a1.32,1.32,0,0,1,.49-1.26,1.18,1.18,0,0,1,1.23,0,1.06,1.06,0,0,1,.51,1V44c0,2.61,0,5.22,0,7.83a6.6,6.6,0,0,1-5.46,6.49c-.05,0-.09.06-.14.08Z" transform="translate(-11.28 -14.39)"/><path class="a" d="M29.45,42.77q0-4.58,0-9.15a1,1,0,0,1,1.16-1.17,1,1,0,0,1,1,.82,2.57,2.57,0,0,1,.06.55V51.66a2.33,2.33,0,0,1-.08.59,1.13,1.13,0,0,1-1.23.78,1,1,0,0,1-.91-1.1Q29.45,47.34,29.45,42.77Z" transform="translate(-11.28 -14.39)"/><path class="a" d="M24,42.68v9.16A1.14,1.14,0,0,1,22.56,53a.91.91,0,0,1-.76-.73,3.45,3.45,0,0,1-.07-.72q0-8.82,0-17.63a2.59,2.59,0,0,1,0-.56A1,1,0,0,1,23,32.45a1,1,0,0,1,1,1.12Z" transform="translate(-11.28 -14.39)"/><path class="a" d="M39.36,42.73c0,3,0,6.05,0,9.07A1.13,1.13,0,0,1,38,53a.93.93,0,0,1-.78-.81,4.73,4.73,0,0,1,0-.65V33.93a3.94,3.94,0,0,1,0-.6,1,1,0,0,1,1.17-.88,1,1,0,0,1,1,1c0,1,0,2.07,0,3.1Z" transform="translate(-11.28 -14.39)"/></svg>