<svg xmlns="http://www.w3.org/2000/svg" xmlns:xlink="http://www.w3.org/1999/xlink" width="166" height="162" viewBox="0 0 166 162">
  <defs>
    <clipPath id="clip-Artboard_1">
      <rect width="166" height="162"/>
    </clipPath>
  </defs>
  <g id="Artboard_1" data-name="Artboard – 1" clip-path="url(#clip-Artboard_1)">
    <rect width="166" height="162" fill="#fff"/>
    <g id="Group_366" data-name="Group 366" transform="translate(10 11)">
      <circle id="Ellipse_149" data-name="Ellipse 149" cx="72" cy="72" r="72" fill="#d8e1f8"/>
      <g id="Group_363" data-name="Group 363" transform="translate(30.579 24.878)">
        <g id="Group_362" data-name="Group 362" transform="translate(0 0)">
          <path id="Path_3505" data-name="Path 3505" d="M138.26,376.461h23.774c1.892,0,3.785-.025,5.677.006,3.083.052,4.257,1.243,4.253,4.25-.022,16.985-13.023,32.617-29.708,35.716-21.356,3.967-40.629-9.471-44.363-30.93-3.762-21.622,14.359-43.005,36.234-42.758,2.941.033,4.119,1.236,4.126,4.385C138.274,356.766,138.26,366.4,138.26,376.461Zm-17.652-13.32a23.165,23.165,0,0,0-2.131,1.527,34.29,34.29,0,0,1-3.107,2.914c-2.889,1.913-4.385,4.489-4.122,7.935a7.852,7.852,0,0,0,5.092,7.019c.894.378,1.993.312,2.833.76a11.086,11.086,0,0,1,2.107,1.923,10.335,10.335,0,0,1-2.516,1.422,15.174,15.174,0,0,1-3.226.062c-2.852.054-4.3,1.184-4.312,3.352s1.34,3.079,4.3,3.329c.941.08,1.828.87,2.727,1.36,1.167.635,2.5,2,3.435,1.762,1.135-.286,2.037-1.842,2.834-2.99.47-.677.339-1.78.824-2.436,4.893-6.619,2.687-12.755-5.245-14.428-.264-.056-.618,0-.781-.159-.533-.51-1.5-1.26-1.381-1.609a2.668,2.668,0,0,1,1.685-1.615c1.585-.241,3.234-.014,4.848-.12a3.4,3.4,0,0,0,3.5-3.4C128.08,367.952,122.979,363.092,120.608,363.141Z" transform="translate(-97.395 -329.227)" fill="#416ce1"/>
          <path id="Path_3506" data-name="Path 3506" d="M205.207,358.426c-5.223,0-10.446.02-15.668-.008-3.172-.017-4.462-1.26-4.47-4.372q-.037-16.072,0-32.146c.009-3.021,1.278-4.162,4.346-4.142,19.524.125,36,16.552,36.3,36.2.049,3.2-1.108,4.44-4.3,4.46C216.012,358.451,210.61,358.426,205.207,358.426Z" transform="translate(-137.629 -317.759)" fill="#416ce1"/>
          <path id="Path_3507" data-name="Path 3507" d="M12.551,37.134l16.495-4.116,7.366,16.341v24.4H24.494l-14.727-3.6Z" transform="translate(-1.093 -3.924)" fill="#416ce1"/>
          <text id="_" data-name="$" transform="translate(13.421 38.121)" fill="#fff" font-size="38" font-family="Helvetica"><tspan x="0" y="29">$</tspan></text>
        </g>
      </g>
    </g>
  </g>
</svg>
