<?xml version="1.0" encoding="UTF-8"?>
<svg xmlns="http://www.w3.org/2000/svg" xmlns:xlink="http://www.w3.org/1999/xlink" width="24pt" height="24pt" viewBox="0 0 24 24" version="1.1">
<g id="surface1512516">
<path style=" stroke:none;fill-rule:nonzero;fill:rgb(9.019608%,50.980392%,72.156863%);fill-opacity:1;" d="M 12 2 C 6.484375 2 2 6.484375 2 12 C 2 17.515625 6.484375 22 12 22 C 17.515625 22 22 17.515625 22 12 C 22 6.484375 17.515625 2 12 2 Z M 12 3.5 C 16.703125 3.5 20.5 7.296875 20.5 12 C 20.5 16.703125 16.703125 20.5 12 20.5 C 7.296875 20.5 3.5 16.703125 3.5 12 C 3.5 7.296875 7.296875 3.5 12 3.5 Z M 12 7 C 11.449219 7 11 7.449219 11 8 C 11 8.550781 11.449219 9 12 9 C 12.550781 9 13 8.550781 13 8 C 13 7.449219 12.550781 7 12 7 Z M 11.988281 10.488281 C 11.574219 10.496094 11.242188 10.835938 11.25 11.25 L 11.25 16.75 C 11.246094 17.019531 11.386719 17.273438 11.621094 17.410156 C 11.855469 17.542969 12.144531 17.542969 12.378906 17.410156 C 12.613281 17.273438 12.753906 17.019531 12.75 16.75 L 12.75 11.25 C 12.753906 11.046875 12.671875 10.851562 12.53125 10.707031 C 12.386719 10.566406 12.191406 10.484375 11.988281 10.488281 Z M 11.988281 10.488281 "/>
</g>
</svg>
