<?xml version="1.0" encoding="UTF-8"?>
<svg width="766px" height="596px" viewBox="0 0 766 596" version="1.1" xmlns="http://www.w3.org/2000/svg" xmlns:xlink="http://www.w3.org/1999/xlink">
    <!-- Generator: Sketch 52.2 (67145) - http://www.bohemiancoding.com/sketch -->
    <title>Group 5</title>
    <desc>Created with Sketch.</desc>
    <defs>
        <linearGradient x1="50%" y1="141.406226%" x2="50%" y2="0%" id="linearGradient-1">
            <stop stop-color="#5F95E2" offset="0%"></stop>
            <stop stop-color="#0F82BC" offset="100%"></stop>
        </linearGradient>
        <linearGradient x1="50%" y1="0%" x2="50%" y2="100%" id="linearGradient-2">
            <stop stop-color="#6B81E8" stop-opacity="0.577587183" offset="0%"></stop>
            <stop stop-color="#D8D8D8" stop-opacity="0" offset="100%"></stop>
        </linearGradient>
        <linearGradient x1="50%" y1="141.406226%" x2="50%" y2="0%" id="linearGradient-3">
            <stop stop-color="#9AA4FF" offset="0%"></stop>
            <stop stop-color="#0F82BC" offset="100%"></stop>
        </linearGradient>
        <linearGradient x1="11.4659665%" y1="61.3241056%" x2="58.7797511%" y2="50%" id="linearGradient-4">
            <stop stop-color="#04CEE6" offset="0%"></stop>
            <stop stop-color="#3C93EC" offset="100%"></stop>
        </linearGradient>
    </defs>
    <g id="Page-1" stroke="none" stroke-width="1" fill="none" fill-rule="evenodd">
        <g id="Philoshopy" transform="translate(-570.000000, -111.000000)">
            <g id="Group-5" transform="translate(570.000000, 111.000000)">
                <path d="M780.994079,356.489992 C767.371003,319.24014 745.917359,307.903621 725.511467,284.013782 C700.59059,254.830864 683.780602,233.620239 690.250931,196.086467 C700.824956,134.755244 705.351429,-18.2055207 539.785912,1.78830486 C480.44316,8.95615779 433.549359,53.5518753 399.435376,98.0709795 C370.406209,135.949511 318.188632,139.291204 276.156768,148.122017 C224.515914,158.971816 171.912323,175.364815 124.131608,199.38084 C25.7302199,248.841504 -3.65968718,319.94318 0.354398325,410.919255 C1.56528731,438.40316 5.53341877,481.698705 52.8775698,532.358142 C116.776664,600.733285 209.633698,609.890831 321.393926,578.488379 C346.976541,571.300246 371.157557,560.02682 396.324288,551.540767 C422.467542,542.723475 449.670037,536.930155 477.189614,534.320795 C500.587114,532.101262 524.297102,532.155342 547.965731,532.207169 C589.227865,532.299555 630.361327,532.389689 669.493491,520.447023 C702.051929,510.509823 731.954224,492.323171 755.501074,468.135892 C784.913958,437.925454 795.373098,395.80615 780.994079,356.489992" id="Fill-4" fill="#416CE1"></path>
                <g id="Group-90" transform="translate(53.724399, 23.239024)">
                    <g id="Group-3" transform="translate(376.589128, 0.000000)">
                        <g id="Group-24" transform="translate(0.000000, 18.731707)">
                            <polygon id="Path-14" fill="#586CB5" points="27.4338984 0.631715173 27.4338984 36.5446683 30.9745266 36.5446683 30.9745266 0.631715173"></polygon>
                            <path d="M27.4433437,35.862087 L27.4433437,36.5635928 L25.2973994,36.5635928 L25.2973994,37.8215174 L23.5575496,37.8215174 L23.5575496,50.2194324 C8.32787659,59.1875463 0.88234512,64.4401056 1.22095521,65.9771104 C4.48232621,65.9771104 12.4961878,62.0766827 22.0470868,61.8489705 C31.5979858,61.6212584 32.5111052,59.9729971 54.2455228,65.9771104 C57.0501327,66.3295962 60.9869785,65.721948 50.3207607,59.2714566 C39.6545429,52.8209652 34.0884214,53.0439983 33.9720158,47.6990024 C33.894412,44.1356718 33.894412,40.8431768 33.9720158,37.8215174 L32.3016557,37.8215174 L32.3016557,36.5635928 L28.0393576,36.5635928 L27.4433437,35.862087 Z" id="Path-15" fill="url(#linearGradient-1)"></path>
                            <path d="M1.96434519,66.3731264 C10.5092811,68.4303205 22.7043517,69.1160519 38.5495569,68.4303205 C48.8778723,67.8303056 54.4783515,67.1445742 55.3509943,66.3731264 C47.0897111,63.4118243 37.0703517,61.9419159 25.2929159,61.9634011 C13.5154801,61.9848864 5.73928988,63.4547948 1.96434519,66.3731264 Z" id="Path-16" fill="#02C1E5"></path>
                            <path d="M27.5618562,62.5509539 C24.8998717,64.8472143 23.7333457,66.8887368 24.062278,68.6755213 C24.5556765,71.355698 26.9796833,73.0795216 28.9476704,73.0107713 C30.9156575,72.942021 34.4867224,72.4575122 34.0264975,69.243616 C33.7196809,67.1010185 32.6177888,64.8701311 30.7208212,62.5509539 L27.5618562,62.5509539 Z" id="Path-17" fill="#EBBD32"></path>
                            <polygon id="Path-18" fill="url(#linearGradient-2)" points="0.878565118 66.1304531 0.878565118 92.4704608 57.0163072 92.4704608 57.0163072 65.1845763"></polygon>
                        </g>
                        <g id="Group-24-Copy" transform="translate(124.592920, 0.000000)">
                            <polygon id="Path-14" fill="#586CB5" points="27.4338984 0.631715173 27.4338984 36.5446683 30.9745266 36.5446683 30.9745266 0.631715173"></polygon>
                            <path d="M27.4433437,35.862087 L27.4433437,36.5635928 L25.2973994,36.5635928 L25.2973994,37.8215174 L23.5575496,37.8215174 L23.5575496,50.2194324 C8.32787659,59.1875463 0.88234512,64.4401056 1.22095521,65.9771104 C4.48232621,65.9771104 12.4961878,62.0766827 22.0470868,61.8489705 C31.5979858,61.6212584 32.5111052,59.9729971 54.2455228,65.9771104 C57.0501327,66.3295962 60.9869785,65.721948 50.3207607,59.2714566 C39.6545429,52.8209652 34.0884214,53.0439983 33.9720158,47.6990024 C33.894412,44.1356718 33.894412,40.8431768 33.9720158,37.8215174 L32.3016557,37.8215174 L32.3016557,36.5635928 L28.0393576,36.5635928 L27.4433437,35.862087 Z" id="Path-15" fill="url(#linearGradient-3)"></path>
                            <path d="M1.96434519,66.3731264 C10.5092811,68.4303205 22.7043517,69.1160519 38.5495569,68.4303205 C48.8778723,67.8303056 54.4783515,67.1445742 55.3509943,66.3731264 C47.0897111,63.4118243 37.0703517,61.9419159 25.2929159,61.9634011 C13.5154801,61.9848864 5.73928988,63.4547948 1.96434519,66.3731264 Z" id="Path-16" fill="#02C1E5"></path>
                            <path d="M27.5618562,62.5509539 C24.8998717,64.8472143 23.7333457,66.8887368 24.062278,68.6755213 C24.5556765,71.355698 26.9796833,73.0795216 28.9476704,73.0107713 C30.9156575,72.942021 34.4867224,72.4575122 34.0264975,69.243616 C33.7196809,67.1010185 32.6177888,64.8701311 30.7208212,62.5509539 L27.5618562,62.5509539 Z" id="Path-17" fill="#EBBD32"></path>
                            <polygon id="Path-18" fill="url(#linearGradient-2)" points="0.878565118 66.1304531 0.878565118 92.4704608 57.0163072 92.4704608 57.0163072 65.1845763"></polygon>
                        </g>
                    </g>
                    <g id="Group-84" transform="translate(318.508217, 141.424390)">
                        <polygon id="Fill-84" fill="#D4C9A7" points="0 159.219512 198.599241 159.219512 198.599241 0 0 0"></polygon>
                        <polygon id="Fill-85" fill="#BCB18D" points="99.2996207 159.219512 198.599241 159.219512 198.599241 0 99.2996207 0"></polygon>
                        <polygon id="Fill-86" fill="#F1E5BE" points="4.61858701 154.973659 192.826008 154.973659 192.826008 4.24585366 4.61858701 4.24585366"></polygon>
                        <polygon id="Fill-87" fill="#D4C9A7" points="99.2996207 154.973659 193.980654 154.973659 193.980654 4.24585366 99.2996207 4.24585366"></polygon>
                        <polygon id="Fill-88" fill="#E5E5E0" points="103.918208 81.7326829 142.021551 81.7326829 142.021551 36.0897561 103.918208 36.0897561"></polygon>
                        <polygon id="Fill-89" fill="#C7C6C1" points="123.547203 81.7326829 142.021551 81.7326829 142.021551 36.0897561 123.547203 36.0897561"></polygon>
                        <polygon id="Fill-90" fill="#FFFFFE" points="11.5464675 81.7326829 49.6498104 81.7326829 49.6498104 36.0897561 11.5464675 36.0897561"></polygon>
                        <polygon id="Fill-91" fill="#E5E5E0" points="31.1754623 81.7326829 49.6498104 81.7326829 49.6498104 36.0897561 31.1754623 36.0897561"></polygon>
                        <polygon id="Fill-92" fill="#FFFFFE" points="58.8869844 81.7326829 96.9903272 81.7326829 96.9903272 36.0897561 58.8869844 36.0897561"></polygon>
                        <polygon id="Fill-93" fill="#E5E5E0" points="78.5159792 81.7326829 96.9903272 81.7326829 96.9903272 36.0897561 78.5159792 36.0897561"></polygon>
                        <polygon id="Fill-94" fill="#E5E5E0" points="153.568018 81.7326829 191.671361 81.7326829 191.671361 36.0897561 153.568018 36.0897561"></polygon>
                        <polygon id="Fill-95" fill="#C7C6C1" points="172.042366 81.7326829 190.516714 81.7326829 190.516714 36.0897561 172.042366 36.0897561"></polygon>
                        <path d="M44.5667315,92.4039549 C48.1282647,90.5223462 49.9090313,87.1320819 48.7050312,81.7326829 C54.5207603,81.8457719 59.4857587,81.8457719 65.3014878,81.7326829 C64.2080346,86.6267905 65.4360666,89.8341875 68.2405938,91.7735438 C134.10012,137.283451 -2.00956798,117.02608 44.5667315,92.4039549" id="Fill-96" fill="#F4BE9F"></path>
                        <path d="M56.5776909,81.8169077 C59.305274,81.8169077 62.0328571,81.790437 64.9775734,81.7326829 C63.8650708,86.6273426 65.1141965,89.8351013 67.9588852,91.77227 C105.066702,117.034874 79.0253583,122.030603 56.5776909,117.270703 L56.5776909,81.8169077" id="Fill-97" fill="#F4BE9F"></path>
                        <path d="M44.3039223,66.2851302 C43.2875075,64.9037271 42.5853005,64.6250647 41.9021364,65.1323731 C41.5855482,65.3729278 41.4689104,66.127936 41.6593394,67.0806278 C41.9878295,68.7406932 43.0328087,71.2176919 43.3612987,72.6729285 C43.5826724,73.6565828 44.7109643,76.6647071 45.7583238,76.0859468 C46.0177834,78.1890139 45.8725812,79.7633371 46.474813,81.2114286 C46.9699284,82.3975299 49.0027581,83.5097975 50.1310499,84.6006296 C52.4376213,86.8180197 54.0919733,85.6986069 56.1985942,85.6771713 C58.2956937,85.6557358 60.8474424,86.7394227 63.1111672,84.5220325 C64.232318,83.4192918 66.2508655,82.2927338 66.7436005,81.0994873 C67.3291697,79.6775948 67.2006301,78.1437611 67.4339057,76.1026189 C68.4741241,76.5980187 69.5738517,73.6470559 69.792845,72.6729285 C70.1237154,71.2176919 71.171075,68.7406932 71.4971846,67.0806278 C71.6852333,66.127936 71.5709759,65.3729278 71.2520073,65.1323731 C70.5759843,64.6298282 69.8832988,64.8965819 68.8835465,66.242259 C68.8168964,65.0656847 68.735964,63.8486209 68.7716695,62.5577236 C68.8430803,60.1640855 68.900209,58.1801049 68.6050441,56.4986039 C68.3051184,54.8004308 67.645758,53.3975921 66.2651476,52.1567111 C64.3727594,50.4680649 61.8257714,49.410577 59.1216795,49.0104465 C56.4056858,48.6103159 53.5444899,48.865161 51.0213055,49.7821268 C51.0189252,49.7845086 51.0189252,49.7845086 51.0189252,49.7845086 C50.9165696,49.8202345 50.8165944,49.8559604 50.7166191,49.8964498 C50.6856744,49.9083585 50.649969,49.9226489 50.6190243,49.9369392 C50.5499938,49.9583748 50.4833436,49.9869556 50.4166934,50.0155363 C50.3690862,50.0345901 50.3214789,50.053644 50.2762521,50.079843 C50.2238841,50.0988968 50.1715161,50.1179507 50.1191481,50.1465314 C50.0667801,50.1655853 50.0191729,50.1894026 49.9715656,50.2108381 C49.9239584,50.229892 49.86921,50.2537093 49.8216028,50.2799083 C49.7858974,50.2965804 49.7525723,50.3132525 49.7168668,50.3299246 C49.6549774,50.3608871 49.5907076,50.3942313 49.5288182,50.4204303 C49.5216771,50.4251938 49.5097753,50.4299572 49.5002538,50.432339 C48.5504892,50.9110666 47.6816568,51.4922086 46.9127997,52.1733832 C46.9127997,52.1757649 46.9127997,52.1757649 46.9127997,52.1757649 C45.5250483,53.4190277 44.8585468,54.833775 44.5610014,56.5390933 C44.2658365,58.2253577 44.334867,60.2164835 44.4062779,62.6196485 C44.4443637,63.9034007 44.3681921,65.1133193 44.3039223,66.2851302" id="Fill-98" fill="#F8D2BD"></path>
                        <path d="M56.5776909,85.7394468 C58.5972977,85.8348578 60.9721836,86.6553924 63.0967051,84.5754326 C64.2197686,83.4710503 66.2417599,82.3428153 66.7353356,81.1477925 C67.3219038,79.7237834 67.1931449,78.1876663 67.4268184,76.1434857 C68.4688115,76.6396229 69.5704152,73.6842672 69.7897822,72.7086898 C70.1212171,71.2512868 71.1703635,68.7706009 71.4970295,67.1080642 C71.685399,66.1539543 71.5709467,65.3978221 71.2514339,65.1569093 C70.5742576,64.6536163 69.8803903,64.9207671 68.8789324,66.2684474 C68.8121685,65.0901216 68.7310981,63.8712461 68.7668645,62.5784271 C68.8383972,60.1812258 68.8956234,58.1942918 68.5999548,56.5102877 C68.2995175,54.8095866 67.6390321,53.4046597 66.2560664,52.1619314 C64.3604496,50.4707715 61.8091163,49.4117094 59.1004111,49.0109832 C58.2682472,48.8893342 57.4241613,48.8273171 56.5776909,48.8273171 L56.5776909,85.7394468" id="Fill-99" fill="#F5C4AB"></path>
                        <path d="M43.469884,68.4855778 C42.0228453,61.2591684 42.3711157,55.2811284 47.254258,51.755074 C55.492568,45.8123651 65.732206,50.5279034 66.2423485,51.9128867 C70.8606092,54.3672278 70.9268296,60.8281277 69.8893764,67.3008047 C69.0824684,72.3366793 68.0376575,79.4217638 65.0454758,83.4824971 C63.0662212,86.1676687 59.3039207,86.5516012 56.5717155,88.1014634 C52.9344979,86.2948611 50.4156696,86.7989196 48.4266046,84.0101097 C46.0058806,80.6136031 44.3381072,72.8101174 43.469884,68.4855778" id="Fill-100" fill="#211311"></path>
                        <path d="M56.5776909,48.8273171 C61.7093311,48.8343854 65.9157545,51.0373566 66.239703,51.9114767 C70.8608788,54.3665527 70.927141,60.8293869 69.889033,67.3040017 C69.0816157,72.3413839 68.0385994,79.4285897 65.0420749,83.4905387 C63.0664793,86.1694459 59.3091665,86.5605616 56.5776909,88.1014634 L56.5776909,48.8273171" id="Fill-101" fill="#1A100F"></path>
                        <path d="M47.8339644,88.1014634 C47.51451,89.196271 46.9893463,89.9172958 46.1858701,90.4591702 C53.8116336,95.9685958 60.0361541,95.6434711 68.1241584,90.4591702 C66.8705419,89.6165001 66.5970696,89.1741537 66.1275685,88.1943562 C62.1706902,88.6875725 52.0691551,88.5460216 47.8339644,88.1014634" id="Fill-102" fill="#56B4C4"></path>
                        <path d="M56.5776909,94.4702439 C59.8588354,94.3848775 63.2019317,92.9898113 66.9695117,90.4018624 C65.7809572,89.5459523 65.5216779,89.0966556 65.0765436,88.1014634 C63.2156987,88.3508231 59.9184926,88.4406824 56.5776909,88.4137246 L56.5776909,94.4702439" id="Fill-103" fill="#56B4C4"></path>
                        <path d="M29.9712545,105.748842 C33.5679965,119.38408 55.4563219,147.524586 44.1065484,149.324563 C39.3540598,150.079546 35.3370463,149.664904 32.3071821,147.260941 C29.1038337,144.715569 27.9065487,137.623519 26.9316166,130.313363 C24.9084492,115.165761 23.0832004,101.770199 23.0929741,101.650361 C23.3128836,99.3494591 23.7502592,97.7220506 24.6005759,96.5931707 C26.1985849,101.077532 26.7727931,102.129715 29.9712545,105.748842" id="Fill-104" fill="#4668D6"></path>
                        <path d="M82.1615923,105.495043 C78.6008169,119.13068 59.1990633,147.526072 70.4277134,149.326101 C75.1319013,150.078709 79.1036284,149.664055 82.1011582,147.260023 C85.2727382,144.716973 86.4548286,137.622319 87.4193563,130.314347 C89.4209327,115.166303 91.22912,101.767954 91.2170332,101.650508 C91.0018879,99.3495395 90.5667626,97.7220835 89.7279377,96.5931707 C87.4556167,100.679787 85.3259201,101.875811 82.1615923,105.495043" id="Fill-105" fill="#4668D6"></path>
                        <polyline id="Fill-106" fill="#1A100F" points="75.1034931 306.762927 63.8506483 306.762927 62.3509246 317.377561 78.5159792 317.242373 75.1034931 306.762927"></polyline>
                        <polyline id="Fill-107" fill="#211311" points="39.2521735 306.762927 51.3035062 306.762927 53.1137506 317.377561 35.7940493 317.242373 39.2521735 306.762927"></polyline>
                        <polyline id="Fill-108" fill="#F7F5F6" points="81.6680443 194.873791 81.6200635 194.87854 72.1030743 245.657725 62.4229504 309.947317 59.7864061 247.201093 57.1114771 197.549754 56.0558998 197.549754 53.7816105 247.201093 51.6536625 309.947317 37.492133 309.662388 35.4241611 265.493567 36.8563876 248.226839 31.1754623 193.040745 35.6856564 160.565905 77.4409369 160.280976 81.9799194 193.157091 81.6680443 194.873791"></polyline>
                        <polyline id="Fill-109" fill="#F7F5F6" points="76.7209768 247.262894 78.1436743 264.412255 75.1399352 308.314524 62.4220268 308.885854 59.785358 246.238769 57.1103028 196.665879 56.5776909 196.665879 56.5776909 156.035122 77.5870709 158.884656 81.9799194 192.280156 76.7209768 247.262894"></polyline>
                        <path d="M77.7023698,247.685601 L79.1719375,264.813527 L76.0692413,308.660922 L70.8799077,308.885854 L70.3619656,265.197094 L68.1241584,247.39911 C73.3035793,226.371586 76.5772707,212.271945 78.4061762,190.732998 L77.7221953,185.914733 L82.1804623,185.756098 L83.1345662,192.771586 L77.7023698,247.685601" id="Fill-110" fill="#DEDFDD"></path>
                        <path d="M34.582339,154.574911 L30.9225651,190.001951 L56.0171227,189.894907 L56.9151674,181.745236 L57.7963135,189.54047 L82.5456549,189.609454 L77.8671314,152.633833 C79.6221812,141.146747 77.2129106,108.531414 80.5950631,106.716411 C79.9625692,100.043958 87.7842494,93.7996835 78.7386211,94.1588779 C75.5809798,94.2849528 69.5143493,92.1702251 67.1775017,90.2243902 C58.979222,92.4295112 53.2119398,92.3058151 46.4814322,90.2243902 C44.1421704,92.1702251 38.0803682,94.2849528 34.9203128,94.1588779 C28.9719733,93.918622 25.8601998,94.25165 24.2475818,96.404438 C24.3320753,96.6446939 24.4117405,96.8706772 24.4914058,97.0895241 C25.8336448,100.855119 26.1136802,101.521175 28.3418935,104.106899 L34.582339,154.574911 Z" id="Fill-111" fill="#5776E2"></path>
                        <path d="M57.3916662,190.001951 L82.4596747,189.813642 L77.750767,152.762055 L80.2753053,136.317195 L82.6273293,108.52612 C83.2760798,102.571741 88.0092852,100.946086 90.0624467,97.6566374 C88.7163503,94.3886416 85.6159549,93.890457 78.6279165,94.1669614 C75.4521981,94.2932953 69.3437389,92.1742229 66.9917148,90.2243902 C63.0943526,91.2684327 59.7436902,91.7904539 56.5776909,91.8333597 L56.5776909,182.846208 L57.3916662,190.001951" id="Fill-112" fill="#4668D6"></path>
                        <path d="M77.6438929,190.001951 L82.6361672,189.942433 L77.8630899,152.936148 L80.4220307,136.511395 L82.8061065,108.754301 C83.0918015,106.171194 84.160695,104.404682 85.4438597,102.961951 L80.2964234,107.356805 C77.8458497,123.269697 75.3903502,139.144498 72.7427454,155.028822 L77.6438929,190.001951" id="Fill-113" fill="#3A5AC2"></path>
                        <path d="M144.543141,125.388472 L152.001896,150.663684 L128.16579,157.701593 L129.899498,162.403902 L158.803367,157.54126 C162.246969,155.906819 161.768294,156.761131 161.382496,152.953816 L156.524303,121.006829 L144.543141,125.388472" id="Fill-114" fill="#03C7E7"></path>
                        <polyline id="Fill-115" fill="#F8D2BD" points="108.552754 185.002308 107.382148 192.858607 110.206661 203.800976 115.464675 202.585675 112.543017 183.131539 108.552754 182.571707 108.552754 185.002308"></polyline>
                        <path d="M138.030006,101.900488 C136.861283,106.307903 137.774348,110.952456 139.427604,113.038792 C139.851266,113.570556 141.616525,113.987344 143.469438,114.329877 C146.001671,114.796967 149.179137,115.165848 150.542647,115.446102 C154.399433,116.236563 154.886401,121.170951 154.684309,123.17345 C154.418911,125.791551 152.003551,125.348414 151.314491,127.520982 C151.156226,128.016816 150.985788,129.149809 150.812914,130.414545 C149.191311,131.281656 147.501532,132.040977 145.750883,132.682927 L117.896318,132.682927 C116.910208,132.318836 115.941142,131.921211 114.996424,131.48526 L114.382845,126.651475 L108.536795,122.648872 C108.636623,113.304674 118.105714,115.716775 123.021655,113.759787 C127.034271,112.162099 126.627653,108.832585 126.298949,102.048999 L138.030006,101.900488" id="Fill-116" fill="#F5C4AB"></path>
                        <path d="M137.901201,101.900488 C136.72346,106.307903 137.643571,110.952456 139.309584,113.038792 C139.736515,113.570556 141.515395,113.987344 143.382605,114.329877 C145.934378,114.796967 149.136361,115.165848 150.510393,115.446102 C154.396939,116.236563 154.887664,121.170951 154.684013,123.17345 C154.416568,125.791551 151.982569,125.348414 151.288193,127.520982 C151.128707,128.016816 150.956953,129.149809 150.782745,130.414545 C149.14863,131.281656 147.445812,132.040977 145.681654,132.682927 L131.62973,132.682927 L131.62973,101.977138 L137.901201,101.900488" id="Fill-117" fill="#F4BE9F"></path>
                        <polyline id="Fill-118" fill="#F8D2BD" points="130.577112 300.301009 132.784377 316.833637 130.418765 318.439024 123.110801 318.322312 120.944323 315.340199 123.960118 300.3153 123.883343 300.3153 118.379577 260.687964 119.137725 244.774624 110.846088 196.277167 111.105202 194.247805 130.548322 196.384351 130.924996 243.862364 130.975379 258.418032 130.605903 300.301009 130.577112 300.301009"></polyline>
                        <polyline id="Fill-119" fill="#F5C4AB" points="125.856496 317.377561 122.538915 317.325395 120.356995 314.356679 123.394285 299.399282 123.316964 299.399282 117.773969 259.949978 118.535104 244.136585 118.771901 244.314424 125.165434 258.145511 125.45539 278.108466 125.856496 317.377561"></polyline>
                        <polyline id="Fill-120" fill="#F5C4AB" points="133.360018 300.178794 131.62973 313.830271 133.991672 316.923146 141.006222 317.377561 143.225612 315.200652 140.133704 300.193068 140.214812 300.193068 145.852996 260.611398 145.076332 244.716397 153.568018 196.274828 153.305034 194.247805 133.387054 196.381889 133.00118 243.805188 132.949566 258.344083 133.328067 300.178794 133.360018 300.178794"></polyline>
                        <polyline id="Fill-121" fill="#F4BE9F" points="137.402964 316.105053 140.649707 316.316098 142.864064 314.146373 139.779168 299.188314 139.860091 299.188314 145.485491 259.737262 144.722849 244.136585 144.580621 244.243293 138.092038 258.074992 137.797771 278.036461 137.402964 316.105053"></polyline>
                        <path d="M132.438169,310.050025 L131.62973,315.745453 L133.926908,317.377561 L141.023466,317.256485 L143.176197,314.173883 L142.090513,309.834509 C140.969881,308.938545 139.467163,305.361952 136.953313,305.727602 C134.220463,306.127154 133.509875,309.418007 132.438169,310.050025" id="Fill-122" fill="#E05556"></path>
                        <path d="M112.88792,130.651893 L113.54209,133.896999 C111.49478,137.697596 114.700213,141.495819 115.824416,145.191965 L120.100749,166.383674 L112.698938,182.352827 C107.986491,193.65254 111.252495,206.559376 111.889705,218.661463 L151.653544,218.661463 C152.666296,206.234153 156.058288,194.136813 151.452447,182.962917 L143.71386,166.383674 C145.172416,150.495233 147.980501,145.521935 150.832197,131.589579 L159.341252,135.561096 C158.39634,131.342695 157.570147,121.156336 156.836023,119.392536 C155.576141,116.370575 153.742042,115.489862 150.40093,115.432889 C148.893916,115.292829 145.230565,115.131405 143.745357,114.860781 C142.698685,114.67087 137.661577,115.679773 132.687463,115.634669 C127.584937,115.589565 122.54056,114.492829 121.913042,114.654253 C118.901437,114.967606 113.408833,114.540306 110.721891,115.838824 C109.340865,116.508261 107.836275,118.091645 107.44135,119.584821 C107.012505,121.20144 106.530358,128.999666 106.227501,133.571777 L112.88792,130.651893" id="Fill-123" fill="#03C7E7"></path>
                        <path d="M110.846088,200.795571 C111.198845,206.405608 112.068489,212.085682 112.391849,217.6 C128.927324,212.512913 139.686406,208.835923 154.470346,201.965204 C154.578133,200.802575 154.666322,199.644615 154.722665,198.493659 C146.817483,202.595545 140.526653,203.111491 133.547458,203.109157 C125.61533,204.285794 115.64995,203.302928 110.846088,200.795571" id="Fill-124" fill="#1C91DA"></path>
                        <path d="M131.62973,218.661463 L151.509359,218.661463 C152.541106,206.210345 155.996715,194.08983 151.304491,182.894527 L143.420764,166.283523 L147.824198,145.110676 C148.821388,140.408506 149.292832,136.322351 150.198696,133.6918 L150.672608,131.422771 L159.341252,135.401896 C158.378618,131.175414 157.53693,120.96954 156.789037,119.202362 C155.505525,116.174611 153.637027,115.292211 150.233252,115.235129 C148.697974,115.094801 144.965915,114.933067 143.452852,114.661925 C142.386549,114.47165 137.254969,115.482486 132.187564,115.437296 L131.62973,115.43016 L131.62973,218.661463" id="Fill-125" fill="#1C91DA"></path>
                        <path d="M149.566662,218.661463 L151.376031,218.661463 C152.406435,206.193039 155.857548,194.055678 151.171429,182.844814 L143.297961,166.210721 L147.695665,145.008446 C148.213332,142.557633 148.59049,140.273541 148.957787,138.275259 L148.196077,129.498537 C147.059674,133.41174 145.624997,140.76418 144.488595,144.679766 L138.55761,166.5918 C155.071187,193.56742 151.131988,199.40269 149.566662,218.661463" id="Fill-126" fill="#1C91DA"></path>
                        <path d="M153.314581,202.060655 C153.422845,200.866059 153.511425,199.676261 153.568018,198.493659 C145.627814,202.708328 139.309115,203.23846 132.299,203.236061 C132.07755,203.267245 131.85364,203.29843 131.62973,203.329614 L131.62973,211.23122 C138.698898,208.628535 145.438352,205.805162 153.314581,202.060655" id="Fill-127" fill="#1C91DA"></path>
                        <path d="M113.492628,152.058868 L113.943943,184.694634 L108.94127,184.460508 L105.072854,155.653532 C105.259112,154.284249 105.24956,153.510923 105.347464,153.040306 C105.278215,152.55077 105.368955,151.793998 105.399998,150.43181 L107.267345,125.044495 L108.033864,118.883902 L120.083262,123.19277 L113.492628,152.058868" id="Fill-128" fill="#03C7E7"></path>
                        <path d="M121.871936,98.8842889 C123.981475,101.668684 126.676321,104.51706 129.363851,104.983891 C129.651626,105.033654 136.594817,105.777739 139.616459,102.329829 C156.39035,83.1992603 139.223816,62.6018486 128.524912,72.7251968 C123.776618,70.6730387 121.22566,72.7749605 119.796538,76.211022 C116.74807,83.5428665 116.918785,92.3486628 121.871936,98.8842889" id="Fill-129" fill="#E9AC3E"></path>
                        <path d="M131.62973,105.084878 C134.058782,105.001904 137.512042,104.470869 139.427737,102.339616 C154.863485,85.1876561 142.310045,66.8622032 131.62973,70.5296645 L131.62973,105.084878" id="Fill-130" fill="#D5972F"></path>
                        <path d="M127.446671,66.5861959 C118.614963,64.1838172 113.963092,71.5249505 113.275828,80.3161251 C111.514867,102.779802 129.804402,107.646772 119.862311,116.760976 C132.37247,114.121709 142.096887,95.1371745 143.111885,82.4217957 C143.855402,73.1257387 138.122496,62.8869155 127.446671,66.5861959" id="Fill-131" fill="#D5972F"></path>
                        <path d="M127.407968,66.2650868 C118.600178,63.8981564 113.960904,71.1309676 113.275502,79.792424 C111.51931,101.924637 129.759314,106.719793 119.844147,115.699512 C132.276523,111.852072 132.369211,75.2448057 127.407968,66.2650868" id="Fill-132" fill="#E9AC3E"></path>
                        <path d="M144.434762,87.2061497 C144.922023,86.8354849 145.29151,87.1200598 145.388501,87.7131235 C145.533986,88.5859792 144.707259,90.2623406 144.439381,91.2858537 C144.510969,89.8725447 145.346933,88.4998893 145.176046,87.7394287 C145.074437,87.2683257 144.70495,87.18941 144.330844,87.6126853 C144.367793,87.4739849 144.402432,87.3376759 144.434762,87.2061497" id="Fill-133" fill="#DE9E71"></path>
                        <path d="M130.821454,310.050025 L131.62973,315.745453 L129.333015,317.377561 L122.237889,317.256485 L120.083262,314.173883 L121.168728,309.834509 C122.291463,308.938545 123.793878,305.361952 126.304891,305.727602 C129.03952,306.129575 129.752293,309.418007 130.821454,310.050025" id="Fill-134" fill="#E05556"></path>
                    </g>
                    <g id="Group-86" transform="translate(0.000000, 205.112195)">
                        <path d="M29.5101079,130.322571 L262.768021,130.322571 C275.449472,130.322571 285.823807,119.322552 285.823807,105.876274 L285.823807,92.4323238 C285.823807,78.9860459 275.449472,67.986027 262.768021,67.986027 L29.5101079,67.986027 C16.826462,67.986027 6.45212638,78.9860459 6.45212638,92.4323238 L6.45212638,105.876274 C6.45212638,119.322552 16.826462,130.322571 29.5101079,130.322571" id="Fill-4" fill="#5B3A24"></path>
                        <path d="M242.263013,38.4260946 C243.314495,52.74055 224.578788,66.9875064 212.986137,67.5554295 C201.731542,68.1047322 221.457268,63.8057404 216.285466,53.757691 C204.883794,31.6040346 222.447286,13.9891079 232.077461,23.9324175 C240.601275,19.9173873 241.782272,31.9112717 242.263013,38.4260946" id="Fill-5" fill="#E9AC3E"></path>
                        <path d="M242.263013,38.4260946 C242.882049,46.8541666 236.641203,55.2566356 229.039357,60.861385 L229.039357,21.7794303 C230.104011,22.2472686 231.129151,22.9548449 232.077461,23.9324175 C240.601275,19.9173873 241.782272,31.9112717 242.263013,38.4260946" id="Fill-6" fill="#D5972F"></path>
                        <path d="M223.162908,51.8025459 C224.216586,56.0852447 223.549257,60.7124215 222.058742,62.7373933 C221.681174,63.2564378 220.034803,63.6614321 218.364284,63.9942723 C216.083511,64.4481453 213.218825,64.8065886 211.987339,65.0789123 C208.512397,65.8446775 208.068975,70.6417658 208.253368,72.5876007 C208.492641,75.1292894 210.670242,74.7010195 211.291472,76.8097831 C211.434158,77.2939143 211.587819,78.3948472 211.743676,79.6237956 C213.205654,80.4663701 214.731291,81.2042046 216.305222,81.8256614 L241.420071,81.8256614 C242.309111,81.4742008 243.182786,81.0878269 244.034509,80.6642121 L244.587689,75.9672087 L249.858273,72.0755389 C249.768272,62.9980793 241.231287,65.3395984 236.799255,63.437987 C233.183823,61.8878362 233.442852,58.5408139 233.739199,51.9491817 L223.162908,51.8025459" id="Fill-7" fill="#F5C4AB"></path>
                        <path d="M229.039357,81.8256614 L241.420071,81.8256614 C242.309111,81.4742008 243.182786,81.0878269 244.034509,80.6642121 L244.587689,75.9672087 L249.858273,72.0755389 C249.768272,62.9980793 241.231287,65.3395984 236.799255,63.437987 C233.183823,61.8878362 233.442852,58.5408139 233.739199,51.9491817 L229.039357,51.8840102 L229.039357,81.8256614" id="Fill-8" fill="#F4BE9F"></path>
                        <polyline id="Fill-9" fill="#F5C4AB" points="236.318514 211.153857 230.321332 211.17946 228.282026 227.500267 230.446456 229.069038 237.132919 228.95266 239.115151 226.040891 236.318514 211.153857"></polyline>
                        <polyline id="Fill-10" fill="#D1552C" points="229.089846 221.106477 228.328125 227.42113 230.492554 228.989901 237.179018 228.873523 239.207347 225.910548 237.789273 219.079177 235.723625 224.292898 230.286209 224.253329 229.089846 221.106477"></polyline>
                        <polyline id="Fill-11" fill="#F5C4AB" points="248.354587 109.693462 248.119705 107.710386 230.327917 109.798202 229.983277 156.193331 229.937178 170.417012 230.275233 211.344716 236.426077 211.358682 241.459584 172.63517 240.770303 157.084784 248.354587 109.693462"></polyline>
                        <polyline id="Fill-12" fill="#F8D2BD" points="221.685564 211.153857 227.680552 211.17946 229.403754 227.332683 227.397376 228.789732 220.868964 228.617493 218.886733 226.040891 221.685564 211.153857"></polyline>
                        <polyline id="Fill-13" fill="#E15F29" points="228.914233 221.106477 229.673759 227.42113 227.509329 228.989901 220.822866 228.873523 218.794536 225.910548 220.212611 219.079177 222.278258 224.292898 227.715674 224.253329 228.914233 221.106477"></polyline>
                        <polyline id="Fill-14" fill="#F8D2BD" points="209.647296 109.693462 209.884374 107.710386 227.673966 109.798202 228.018607 156.193331 228.064705 170.417012 227.72665 211.344716 221.575806 211.358682 216.5423 172.63517 217.231581 157.084784 209.647296 109.693462"></polyline>
                        <path d="M246.394308,78.7928589 L245.674295,82.6589257 C246.295525,83.908822 246.651142,85.3332849 246.651142,86.8438673 C246.651142,89.6136562 245.467949,92.0855183 243.608647,93.7334263 L239.729796,114.509171 L228.424712,119.269018 L218.337942,114.509171 L214.421773,93.7939427 C212.522958,92.1460347 211.311229,89.6439144 211.311229,86.8438673 C211.311229,85.3146645 211.671235,83.8762363 212.307832,82.6170297 L211.888556,80.3965434 L204.176952,84.2905408 C205.035261,80.1544779 205.783811,70.1669448 206.448945,68.4375724 C207.590429,65.4745965 209.249972,64.611074 212.2771,64.5552128 C213.644686,64.4155595 216.961576,64.2596134 218.30721,63.9942723 C219.257715,63.8057404 223.819262,64.7972783 228.33032,64.7530548 C232.948941,64.7088313 237.519268,63.6335015 238.09001,63.7917751 C240.818596,64.0990122 245.795029,63.6800525 248.227268,64.9508969 C249.482901,65.6095946 250.843901,67.1597454 251.203908,68.6261042 C251.592451,70.2111683 252.088558,76.716681 252.321245,81.4904937 L246.394308,78.7928589" id="Fill-15" fill="#444568"></path>
                        <path d="M246.394308,78.7928589 L245.674295,82.6589257 C246.295525,83.908822 246.651142,85.3332849 246.651142,86.8438673 C246.651142,89.6136562 245.467949,92.0855183 243.608647,93.7334263 L239.729796,114.509171 L229.039357,119.01066 L229.039357,64.7390895 C233.407729,64.6017638 237.55,63.6404841 238.09001,63.7917751 C240.818596,64.0990122 245.795029,63.6800525 248.227268,64.9508969 C249.482901,65.6095946 250.843901,67.1597454 251.203908,68.6261042 C251.592451,70.2111683 252.088558,76.716681 252.321245,81.4904937 L246.394308,78.7928589" id="Fill-16" fill="#2E2E4A"></path>
                        <path d="M217.137189,37.8861021 C216.67401,37.5276588 216.322784,37.8046377 216.228392,38.381871 C216.092292,39.2314282 216.87816,40.8630433 217.130603,41.8592363 C217.062553,40.4836521 216.2701,39.1453087 216.432542,38.4074741 C216.531324,37.9489461 216.87816,37.8721368 217.233776,38.2817862 C217.200848,38.1491157 217.167921,38.0164451 217.137189,37.8861021" id="Fill-17" fill="#DE9E71"></path>
                        <path d="M233.085041,54.2650977 C234.298965,53.1199413 235.223128,52.046939 236.371198,50.0824837 C237.194384,48.6696585 237.716832,47.5268297 238.127328,45.9464207 C239.11076,46.1605556 239.516865,45.3086709 239.769309,44.1099808 C240.142486,42.3550053 240.809816,40.6046849 241.103967,39.0638443 C241.463974,37.1761982 240.309319,36.1148337 239.325886,37.6626569 C239.424668,36.0380244 239.404912,34.4320124 239.154663,32.9074647 C238.22172,27.2538367 234.711656,22.9548449 229.037162,22.9734653 C222.752413,22.9967409 219.681381,25.6385144 218.761609,32.013684 C218.471847,34.0153802 218.377455,35.6795812 218.430139,37.2530075 C217.536708,36.3499166 216.649863,37.3763678 216.970356,39.0638443 C217.264508,40.6046849 217.936228,42.3550053 218.305015,44.1099808 C218.550873,45.2714301 218.939417,46.1070219 219.85919,45.9627135 C220.370662,47.8387219 220.991893,49.2794776 221.995082,50.7760947 C222.978515,52.2424535 223.744626,53.2293363 224.732449,54.1394098 C226.747608,55.9967977 227.836408,56.8184241 228.960331,56.8184241 C230.110596,56.8184241 231.293788,55.9525742 233.085041,54.2650977" id="Fill-18" fill="#F8D2BD"></path>
                        <path d="M233.085041,54.2650977 C234.298965,53.1199413 235.223128,52.046939 236.371198,50.0824837 C237.194384,48.6696585 237.716832,47.5268297 238.127328,45.9464207 C239.11076,46.1605556 239.516865,45.3086709 239.769309,44.1099808 C240.142486,42.3550053 240.809816,40.6046849 241.103967,39.0638443 C241.463974,37.1761982 240.309319,36.1148337 239.325886,37.6626569 C239.424668,36.0380244 239.404912,34.4320124 239.154663,32.9074647 C238.22172,27.2561642 234.711656,22.9548449 229.039357,22.9734051 L229.039357,56.8160966 C230.165475,56.7788557 231.333301,55.9153333 233.085041,54.2650977" id="Fill-19" fill="#F5C4AB"></path>
                        <path d="M216.998894,42.2316449 C207.247984,25.7874778 226.089059,13.9122987 234.584336,22.4846791 C234.279209,22.5777812 237.0056,23.262082 237.365606,26.3972969 C239.960288,31.4108476 237.55,27.2701295 237.196579,27.2957326 C239.350033,31.5272253 240.640788,32.5513489 240.078827,35.7517353 C239.85931,36.9993041 239.04271,40.155467 238.370991,42.5551749 C238.715631,40.0344342 238.790267,38.121185 238.867097,36.2475043 C239.011978,32.791087 237.21414,29.9770745 236.779498,27.6146075 L236.794864,27.2957326 L236.775108,27.2957326 C234.852146,34.3226173 214.691778,30.4495679 222.873147,55.2682734 C222.458261,54.7096605 218.651851,41.5892401 218.487213,41.0445925 C217.347924,43.1510286 216.968161,45.6252183 218.432334,48.343801 C217.119627,46.4584825 216.75084,44.3241157 216.998894,42.2316449" id="Fill-20" fill="#E9AC3E"></path>
                        <path d="M229.039357,19.7242003 C231.078663,20.0104894 233.00821,20.8949599 234.584336,22.4846791 C234.279209,22.5777812 237.0056,23.262082 237.365606,26.3972969 C239.960288,31.4108476 237.55,27.2701295 237.196579,27.2957326 C239.350033,31.5272253 240.640788,32.5513489 240.078827,35.7517353 C239.85931,36.9993041 239.04271,40.155467 238.370991,42.5551749 C238.715631,40.0321066 238.790267,38.121185 238.867097,36.2475043 C239.011978,32.791087 237.21414,29.9770745 236.779498,27.6146075 L236.794864,27.2957326 L236.775108,27.2957326 C236.030948,30.0166429 232.549421,31.1036105 229.039357,32.8562585 L229.039357,19.7242003" id="Fill-21" fill="#D5972F"></path>
                        <path d="M211.144396,165.766559 L247.1692,165.766559 C247.750918,153.903018 250.707801,141.248108 246.438211,130.166625 L239.729796,114.509171 L218.337942,114.509171 L211.32879,130.767134 C207.151397,141.720602 210.229014,153.584143 211.144396,165.766559" id="Fill-22" fill="#444568"></path>
                        <path d="M229.039357,165.766559 L247.1692,165.766559 C247.750918,153.903018 250.707801,141.248108 246.438211,130.166625 L239.729796,114.509171 L229.039357,114.509171 L229.039357,165.766559" id="Fill-23" fill="#2E2E4A"></path>
                        <polygon id="Fill-24" fill="#685240" points="26.2151698 227.812159 31.8479555 227.812159 31.8479555 176.29874 26.2151698 176.29874"></polygon>
                        <polygon id="Fill-25" fill="#533B2A" points="147.320062 227.812159 152.952847 227.812159 152.952847 176.29874 147.320062 176.29874"></polygon>
                        <path d="M26.489565,151.428828 L152.897968,151.428828 C159.125643,151.428828 164.218419,156.83108 164.218419,163.432023 L164.218419,170.035293 C164.218419,176.638563 159.125643,182.038487 152.897968,182.038487 L26.489565,182.038487 C20.2640856,182.038487 15.1691146,176.638563 15.1691146,170.035293 L15.1691146,163.432023 C15.1691146,156.83108 20.2640856,151.428828 26.489565,151.428828" id="Fill-26" fill="#E46D5E"></path>
                        <path d="M43.9872013,122.625351 L82.3586328,122.909312 C86.8148117,134.675096 88.6104542,138.576077 84.1213479,151.496327 L41.5220343,151.496327 C38.1063623,138.908917 40.10835,132.603574 43.9872013,122.625351" id="Fill-27" fill="#18788A"></path>
                        <path d="M61.8338682,122.758021 L82.3586328,122.909312 C86.8148117,134.675096 88.6104542,138.576077 84.1213479,151.496327 L61.8338682,151.496327 L61.8338682,122.758021" id="Fill-28" fill="#1B697B"></path>
                        <path d="M26.7859119,64.8740876 L24.4612354,100.101613 C23.8048819,110.063543 34.9672806,111.574126 36.6729215,101.609868 L45.108929,58.4477118 C41.9983845,52.2517637 33.7467706,49.772919 29.3235192,56.0247283 C27.9295913,57.9938388 27.2337249,61.0848301 26.7859119,64.8740876" id="Fill-29" fill="#DEDFDD"></path>
                        <path d="M79.094427,51.8886653 C80.7276275,51.8211663 83.1379154,51.5604803 84.9138014,52.0795248 C93.7537187,54.6537992 86.7050536,71.4936504 84.8413611,71.8637315 C67.793733,75.2759252 47.885809,71.8637315 31.3145311,71.8637315 C31.3145311,68.3467978 31.3255069,58.7735693 31.3474585,58.5315037 C31.8303942,53.0268391 33.6150609,51.8490969 39.7373676,51.9398715 C40.4837227,51.9259062 43.3045059,51.9445266 44.2176933,51.9817675 C51.3914826,51.4859986 56.1879116,48.2018202 54.526174,40.3114131 C59.6474869,40.416153 64.0158593,40.416153 69.1371722,40.3114131 C67.4754346,48.2018202 71.9184424,51.3928964 79.094427,51.8886653" id="Fill-30" fill="#F5C4AB"></path>
                        <path d="M79.094427,51.8886653 C80.7276275,51.8211663 83.1379154,51.5604803 84.9138014,52.0795248 C93.7537187,54.6537992 86.7050536,71.4936504 84.8413611,71.8637315 C77.535862,73.3277628 69.7013288,73.534915 61.8338682,73.295177 L61.8338682,40.3905499 C64.2046432,40.3905499 66.5776133,40.3626193 69.1371722,40.3114131 C67.4754346,48.2018202 71.9184424,51.3928964 79.094427,51.8886653" id="Fill-31" fill="#F4BE9F"></path>
                        <path d="M50.9195228,26.5928114 C50.0151161,25.2893813 49.3938852,25.0286953 48.7858254,25.5058438 C48.5026495,25.7316165 48.401672,26.443848 48.5685043,27.3399561 C48.8582657,28.9040723 49.7890144,31.2362811 50.0809709,32.6072102 C50.2807307,33.5382317 51.2795294,36.3708646 52.2124732,35.826217 C52.4407701,37.8069653 52.3134507,39.289617 52.8490702,40.6535635 C53.2902978,41.7707893 55.0947209,42.8181885 56.1023003,43.8446397 C57.2832974,45.05264 57.7003782,45.9487482 58.5608817,46.3374497 C59.4499223,46.7354614 60.2665226,46.763392 61.9019183,46.7517543 C61.9458215,46.7517543 61.9919199,46.7517543 62.0358231,46.7470992 C63.5504849,46.7401165 64.3341577,46.6865828 65.1902709,46.2932262 C66.0441889,45.8905594 66.4612697,44.9944512 67.6378765,43.7701579 C68.6366752,42.732069 70.4301226,41.6707045 70.869155,40.5488236 C71.3872132,39.2081526 71.27526,37.7627418 71.4816052,35.8425099 C72.4057684,36.3056931 73.3826155,33.526594 73.58018,32.6072102 C73.8721366,31.2362811 74.8050804,28.9040723 75.0948418,27.3399561 C75.2616741,26.443848 75.1606967,25.7316165 74.8775208,25.5058438 C74.2760464,25.0333504 73.6592059,25.2823986 72.7701653,26.553243 C72.7108959,25.4429999 72.6384556,24.2978434 72.671383,23.0805328 C72.7328475,20.8228057 72.7855314,18.9561076 72.5243071,17.3733711 C72.2564974,15.7720141 71.6703891,14.4499636 70.4410984,13.2815316 C68.7596043,11.6918124 66.4941971,10.6956194 64.0926899,10.3185557 C61.6802069,9.94149201 59.133819,10.18123 56.8903634,11.0424249 C56.8881683,11.04708 56.8881683,11.04708 56.8881683,11.04708 C56.8003618,11.0796658 56.708165,11.1145791 56.6203585,11.1518199 C56.5918214,11.1634577 56.5610891,11.177423 56.5347472,11.1890608 C56.4732827,11.2123363 56.4118181,11.2379394 56.3547439,11.2635425 C56.3108407,11.282163 56.2691326,11.3007834 56.2296197,11.3240589 C56.1835213,11.3426794 56.1352277,11.3612998 56.0869341,11.3869029 C56.0430309,11.4078509 56.0013228,11.4287988 55.9574196,11.4474193 C55.9135163,11.4660397 55.8674179,11.4893152 55.8235147,11.5102632 C55.7927824,11.5312112 55.7642453,11.5451765 55.7313179,11.5591418 C55.6764389,11.5917276 55.6193646,11.6196582 55.5644856,11.6475889 C55.5557049,11.6499164 55.5469243,11.6545716 55.5381436,11.6568991 C54.6952014,12.1084445 53.9225044,12.6554197 53.2376139,13.2978245 C53.2376139,13.300152 53.2376139,13.300152 53.2376139,13.300152 C52.0039328,14.4709116 51.4112391,15.8022723 51.1478197,17.4082844 C50.8844002,18.9980036 50.9458648,20.8740119 51.0095245,23.1410492 C51.0446471,24.346722 50.9744019,25.4872234 50.9195228,26.5928114" id="Fill-32" fill="#F8D2BD"></path>
                        <path d="M61.8338682,46.7540818 L61.9019183,46.7517543 C61.9458215,46.7517543 61.9919199,46.7517543 62.0358231,46.7470992 C63.5504849,46.7401165 64.3341577,46.6865828 65.1902709,46.2932262 C66.0441889,45.8905594 66.4612697,44.9944512 67.6378765,43.7701579 C68.6366752,42.732069 70.4301226,41.6707045 70.869155,40.5488236 C71.3872132,39.2081526 71.27526,37.7627418 71.4816052,35.8425099 C72.4057684,36.3056931 73.3826155,33.526594 73.58018,32.6072102 C73.8721366,31.2362811 74.8050804,28.9040723 75.0948418,27.3399561 C75.2616741,26.443848 75.1606967,25.7316165 74.8775208,25.5058438 C74.2760464,25.0333504 73.6592059,25.2823986 72.7701653,26.553243 C72.7108959,25.4429999 72.6384556,24.2978434 72.671383,23.0805328 C72.7328475,20.8228057 72.7855314,18.9561076 72.5243071,17.3733711 C72.2564974,15.7720141 71.6703891,14.4499636 70.4410984,13.2815316 C68.7596043,11.6918124 66.4941971,10.6956194 64.0926899,10.3185557 C63.3463348,10.202178 62.589004,10.1439892 61.8338682,10.1462496 L61.8338682,46.7540818" id="Fill-33" fill="#F5C4AB"></path>
                        <path d="M54.3132433,21.6560699 C53.5493269,22.6266598 51.5780714,23.3365637 51.8371005,29.7094058 C49.2490045,19.7474759 47.8572718,12.6344717 53.4790817,8.1562583 C60.8570212,2.27685757 69.7671837,6.05447728 70.4871968,8.3122044 C76.3921826,10.5070876 74.0214076,20.4224665 72.3947926,28.3128736 C72.3443038,24.3560323 71.5584359,19.4425663 69.6859627,15.9931317 C69.2403448,15.5346036 68.7617995,15.4717597 68.3227671,15.4415015 C63.9521996,15.1459021 60.7977518,23.6903519 54.3132433,21.6560699" id="Fill-34" fill="#685240"></path>
                        <path d="M61.8338682,5.03035363 C66.3449261,4.87440753 70.0349934,6.89239662 70.4871968,8.3122044 C76.3921826,10.5070876 74.0214076,20.4224665 72.3947926,28.3128736 C72.3443038,24.3560323 71.5584359,19.4425663 69.6859627,15.9931317 C69.2403448,15.5346036 68.7617995,15.4717597 68.3227671,15.4415015 C66.0441889,15.2878829 64.0948851,17.5386274 61.8338682,19.4379112 L61.8338682,5.03035363" id="Fill-35" fill="#533B2A"></path>
                        <path d="M87.4514087,71.9777816 L83.2981622,132.633832 L41.9478958,132.633832 L37.7200138,75.3480794 C33.331885,73.1741442 25.0275871,51.7676326 36.5434069,51.9398715 C37.289762,51.9259062 43.3045059,51.9445266 44.2176933,51.9817675 C47.0582329,51.786253 49.5233998,51.1508308 51.3673359,49.9684335 C52.7041895,54.232512 56.8837779,57.3444513 61.8316731,57.3444513 C66.7532263,57.3444513 70.9130582,54.2674253 72.2762538,50.0405877 C74.0279931,51.1205726 76.3636455,51.7001335 79.094427,51.8886653 C80.7276275,51.8211663 85.5196661,52.9849432 87.293357,53.5016601 C96.1310792,56.073607 89.8968191,71.4936504 88.0353218,71.8637315 L87.4514087,71.9777816" id="Fill-36" fill="#A09F99"></path>
                        <path d="M87.4514087,71.9777816 L83.2981622,132.633832 L61.8338682,132.633832 L61.8338682,57.3444513 C66.7532263,57.3444513 70.9130582,54.2674253 72.2762538,50.0405877 C74.0279931,51.1205726 76.3636455,51.7001335 79.094427,51.8886653 C80.7276275,51.8211663 85.3221015,52.9849432 87.0957924,53.5016601 C95.9335146,56.073607 89.8968191,71.4936504 88.0353218,71.8637315 L87.4514087,71.9777816" id="Fill-37" fill="#BAB8B2"></path>
                        <path d="M40.2751823,132.633832 L35.6082679,75.3480794 C34.1397046,75.762384 34.7499596,77.4126196 33.3362753,77.368396 C31.6306344,77.3148623 29.769137,71.8637315 28.1205704,71.8637315 C28.1227656,68.3467978 27.5915364,62.0321445 27.6266589,61.7970616 C28.373014,56.6671332 30.4232953,51.8490969 36.5434069,51.9398715 C37.289762,51.9259062 43.3045059,51.9445266 44.2176933,51.9817675 C45.4272275,51.8979756 46.5687118,51.7350468 47.6245847,51.483671 L60.5277469,134.777509 L40.2751823,132.633832 Z" id="Fill-38" fill="#F7F5F6"></path>
                        <path d="M97.5315925,64.8740876 L99.8562691,100.101613 C100.512623,110.063543 89.3502238,111.574126 87.6445829,101.609868 L79.2085754,58.4477118 C82.3191199,52.2517637 90.5707339,49.772919 94.9961804,56.0247283 C96.3879131,57.9938388 97.0859746,61.0848301 97.5315925,64.8740876" id="Fill-39" fill="#F7F5F6"></path>
                        <path d="M63.7897576,134.777509 L84.0423221,132.633832 L88.7092365,75.3480794 C90.1777999,75.762384 89.5675448,77.4126196 90.9812291,77.368396 C92.68687,77.3148623 94.5483674,71.8637315 96.196934,71.8637315 C96.1947389,68.3467978 96.7259681,62.0321445 96.6930406,61.7970616 C95.9444904,56.6671332 93.8942091,51.8490969 87.7740975,51.9398715 C87.0277424,51.9259062 81.0129985,51.9445266 80.0998112,51.9817675 C78.8902769,51.8979756 77.7487927,51.7350468 76.6951149,51.483671 L63.7897576,134.777509" id="Fill-40" fill="#F7F5F6"></path>
                        <polyline id="Fill-41" fill="#1A100F" points="41.6910618 218.913921 53.9554319 218.913921 56.0122986 227.812159 38.387343 227.698109 41.6910618 218.913921"></polyline>
                        <polyline id="Fill-42" fill="#211311" points="38.0668494 227.812159 43.3725559 223.880921 52.23662 223.880921 55.7927824 227.812159 38.0668494 227.812159"></polyline>
                        <path d="M58.2645348,148.226114 L55.4152146,220.324419 L40.5407969,220.131232 L37.9746526,162.696516 L39.7461483,147.364919 C38.5475898,130.857908 60.4838436,126.647364 58.2645348,148.226114" id="Fill-43" fill="#1B899F"></path>
                        <polyline id="Fill-44" fill="#1A100F" points="84.8084336 218.913921 72.5418684 218.913921 70.4850016 227.812159 88.1121524 227.698109 84.8084336 218.913921"></polyline>
                        <polyline id="Fill-45" fill="#211311" points="88.4304509 227.812159 83.1225492 223.880921 74.2606803 223.880921 70.7045178 227.812159 88.4304509 227.812159"></polyline>
                        <path d="M68.2327654,148.226114 L71.0820857,220.324419 L85.9565033,220.131232 L88.5226477,162.696516 L86.7533472,147.364919 C87.9497104,130.857908 66.0134567,126.647364 68.2327654,148.226114" id="Fill-46" fill="#18788A"></path>
                        <path d="M71.5716068,106.204459 L63.9697609,106.090409 L61.9238699,104.537931 L61.9282602,97.4947532 C66.4283423,96.7941595 66.4085858,96.9082096 71.4903858,95.8654655 C73.3782251,95.9818432 73.8457946,100.278507 73.5538381,103.97699 C73.3233461,106.877122 72.5418684,106.595488 71.5716068,106.204459" id="Fill-47" fill="#F8D2BD"></path>
                        <path d="M171.302206,55.2938765 C172.937602,55.2263774 174.950566,54.5490593 176.726452,55.0657762 C178.258675,58.2009911 178.385994,71.1189143 176.522302,71.4936504 C159.474674,74.9035166 139.566749,71.4936504 122.995472,71.4936504 C122.995472,67.9743892 123.006447,58.4011607 123.026204,58.1590951 C123.511335,52.6544305 125.296001,51.4766883 131.416113,51.5674629 C132.162468,51.5534976 134.983251,51.5697905 135.898634,51.6093589 C143.072423,51.11359 147.868852,47.8294116 146.207114,39.9366769 C151.328427,40.0437444 155.6968,40.0437444 160.818113,39.9366769 C159.156375,47.8294116 164.128417,54.8004351 171.302206,55.2938765" id="Fill-48" fill="#F5C4AB"></path>
                        <path d="M171.036592,53.1967505 C172.669792,53.1269239 175.345695,55.6686126 177.123776,56.1853295 C178.655999,59.3182169 178.385994,71.1189143 176.522302,71.4936504 C169.214607,72.9530266 161.382269,73.1625064 153.512614,72.9227684 L153.512614,40.0158138 C155.885584,40.0158138 158.256359,39.9902107 160.818113,39.9366769 C159.156375,47.8294116 165.845034,52.5613284 171.036592,53.1967505" id="Fill-49" fill="#F4BE9F"></path>
                        <polyline id="Fill-50" fill="#25A9AF" points="130.939763 150.125398 150.116698 152.823033 156.629744 152.823033 175.808874 150.125398 176.340103 148.279648 170.986103 111.820846 136.036929 111.820846 130.660977 148.396026 130.939763 150.125398"></polyline>
                        <polyline id="Fill-51" fill="#1E8F9A" points="153.512614 152.823033 156.629744 152.823033 175.808874 150.125398 176.340103 148.279648 170.986103 111.820846 153.512614 111.820846 153.512614 152.823033"></polyline>
                        <path d="M142.598268,26.2204028 C141.696057,24.9169727 141.072631,24.6562867 140.466766,25.1357628 C140.18359,25.3592079 140.080417,26.0714394 140.24725,26.9675475 C140.539206,28.5316637 141.469955,30.8638725 141.761911,32.2348016 C141.959476,33.1658231 142.96047,35.998456 143.895609,35.4538085 C144.121711,37.4345567 143.994391,38.9172084 144.530011,40.2788273 C144.969043,41.3983807 146.775661,42.4457799 147.783241,43.4722311 C148.966433,44.6802314 149.381319,45.5763396 150.241822,45.9627135 C151.130863,46.3630528 151.945268,46.3909834 153.582859,46.3793457 C153.626762,46.3793457 153.670665,46.3793457 153.716764,46.3746906 C155.22923,46.3700355 156.015098,46.3141742 156.871211,45.9208176 C157.725129,45.5181508 158.140015,44.6220426 159.316622,43.3977493 C160.315421,42.3596604 162.108868,41.2982959 162.5479,40.176415 C163.065959,38.835744 162.9562,37.3903332 163.160351,35.4701013 C164.084514,35.9332845 165.065751,33.1541854 165.258925,32.2348016 C165.553077,30.8638725 166.483826,28.5316637 166.775782,26.9675475 C166.942615,26.0714394 166.841637,25.3592079 166.556266,25.1357628 C165.956987,24.6609418 165.340146,24.9099901 164.451106,26.1808344 C164.389641,25.0705913 164.319396,23.9254348 164.350128,22.7081242 C164.413788,20.4527247 164.466472,18.583699 164.203052,16.9986349 C163.937438,15.3996055 163.349134,14.077555 162.122039,12.909123 C160.43835,11.3170763 158.175138,10.3232108 155.771435,9.94614711 C153.361147,9.56675586 150.81476,9.80882144 148.571304,10.6700163 C148.569109,10.6746714 148.569109,10.6746714 148.569109,10.6746714 C148.479107,10.7072572 148.389106,10.7421705 148.301299,10.7794113 C148.272762,10.7910491 148.24203,10.8050144 148.213493,10.8166522 C148.152028,10.8376002 148.092759,10.8655308 148.033489,10.8911339 C147.991781,10.9097544 147.950073,10.9283748 147.908365,10.9516503 C147.864462,10.9702708 147.816168,10.9888912 147.767875,11.0144943 C147.723971,11.0354423 147.680068,11.0563902 147.63836,11.0750107 C147.594457,11.0936311 147.548358,11.1169066 147.504455,11.1401822 C147.471528,11.1588026 147.442991,11.1727679 147.412258,11.1867333 C147.357379,11.2169915 147.300305,11.2472496 147.245426,11.2728527 C147.236645,11.2775078 147.227865,11.282163 147.219084,11.2844905 C146.376142,11.7360359 145.60125,12.2830111 144.918554,12.9254159 C144.918554,12.9277434 144.918554,12.9277434 144.918554,12.9277434 C143.684873,14.098503 143.09218,15.4321913 142.826565,17.0358758 C142.565341,18.6279225 142.62461,20.5016033 142.690465,22.7663131 C142.723392,23.9743135 142.655342,25.1148148 142.598268,26.2204028" id="Fill-52" fill="#F8D2BD"></path>
                        <path d="M153.512614,46.3793457 L153.582859,46.3793457 C153.626762,46.3793457 153.670665,46.3793457 153.716764,46.3746906 C155.22923,46.3700355 156.015098,46.3141742 156.871211,45.9208176 C157.725129,45.5181508 158.140015,44.6220426 159.316622,43.3977493 C160.315421,42.3596604 162.108868,41.2982959 162.5479,40.176415 C163.065959,38.835744 162.9562,37.3903332 163.160351,35.4701013 C164.084514,35.9332845 165.065751,33.1541854 165.258925,32.2348016 C165.553077,30.8638725 166.483826,28.5316637 166.775782,26.9675475 C166.942615,26.0714394 166.841637,25.3592079 166.556266,25.1357628 C165.956987,24.6609418 165.340146,24.9099901 164.451106,26.1808344 C164.389641,25.0705913 164.319396,23.9254348 164.350128,22.7081242 C164.413788,20.4527247 164.466472,18.583699 164.203052,16.9986349 C163.937438,15.3996055 163.349134,14.077555 162.122039,12.909123 C160.43835,11.3170763 158.175138,10.3232108 155.771435,9.94614711 C155.02508,9.82976943 154.269944,9.77158058 153.512614,9.77384098 L153.512614,46.3793457" id="Fill-53" fill="#F5C4AB"></path>
                        <path d="M145.552956,16.1490778 C144.78904,17.1196677 143.259012,22.9641551 143.518041,29.3369972 C141.085802,19.9825588 139.71163,13.1395508 144.209517,8.63107926 C145.203925,6.95291302 144.082198,6.0987008 145.616616,0.370591065 C147.023715,3.4825304 149.954256,3.07288095 151.381111,3.96433403 L150.985982,2.84478068 C152.590646,4.15752099 154.500436,4.4135519 156.359739,4.84414934 C159.496625,5.36552137 161.814716,6.83420778 162.165942,7.9397958 C168.073123,10.134679 165.704543,20.0500579 164.073538,27.9427926 C164.025244,23.9836237 163.239376,19.0701577 161.366903,15.6207231 C160.921285,15.162195 160.403227,14.8665957 160.003708,15.0690929 C154.487266,17.8551747 146.229066,15.292538 145.552956,16.1490778" id="Fill-54" fill="#5C301E"></path>
                        <path d="M153.512614,4.15519343 C154.443362,4.4484652 155.407038,4.62070418 156.359739,4.84414934 C159.496625,5.36552137 161.814716,6.83420778 162.165942,7.9397958 C168.073123,10.134679 165.704543,20.0500579 164.073538,27.9427926 C164.025244,23.9836237 163.239376,19.0701577 161.366903,15.6207231 C160.921285,15.162195 160.403227,14.8665957 160.003708,15.0690929 C158.032452,16.0629583 155.712166,16.3771781 153.512614,16.4074363 L153.512614,4.15519343" id="Fill-55" fill="#5C301E"></path>
                        <path d="M179.127959,67.3110364 L178.814051,76.6096135 L174.976908,134.035019 L132.043929,134.035019 L129.385588,74.9803259 C127.921415,75.4016131 126.42651,77.0425385 125.015021,76.9959874 C123.311575,76.9424537 121.450078,71.4936504 119.801511,71.4936504 C119.801511,67.9743892 119.549067,59.7976929 119.568824,59.5602824 C120.051759,54.0556179 122.102041,51.4766883 128.224347,51.5674629 C128.968507,51.5534976 134.983251,51.5697905 135.898634,51.6093589 C138.736978,51.4138444 141.20434,50.7784222 143.046081,49.5960249 C144.38513,53.8624309 148.562523,56.9720427 153.512614,56.9720427 C158.431972,56.9720427 162.593999,53.8950167 163.957194,49.6681791 C165.711129,50.748164 168.834844,52.7265847 171.565626,52.9151165 C173.201021,52.8476175 176.737427,53.3364038 178.511118,53.8507931 C178.80527,56.1853295 179.147715,54.9680189 179.294791,57.1954879 C179.540649,60.9195738 179.321133,64.4760759 179.127959,67.3110364" id="Fill-56" fill="#73C2E1"></path>
                        <polyline id="Fill-57" fill="#1B697B" points="137.299147 220.084681 149.563517 220.084681 151.620384 228.982919 133.993233 228.871196 137.299147 220.084681"></polyline>
                        <polyline id="Fill-58" fill="#1B899F" points="133.674935 228.982919 138.980641 225.054008 147.84251 225.054008 151.400868 228.982919 133.674935 228.982919"></polyline>
                        <path d="M145.460759,148.682315 L150.705001,220.629328 L135.914,222.309822 L126.933592,165.605958 L126.977495,150.157984 C123.939391,133.918641 145.250024,126.975549 145.460759,148.682315" id="Fill-59" fill="#25A9AF"></path>
                        <polyline id="Fill-60" fill="#1B697B" points="167.462868 220.168473 155.198498 220.168473 153.141631 229.069038 170.768782 228.954988 167.462868 220.168473"></polyline>
                        <polyline id="Fill-61" fill="#1B899F" points="171.08708 229.069038 165.781374 225.1378 156.919505 225.1378 153.361147 229.069038 171.08708 229.069038"></polyline>
                        <path d="M159.42199,149.031448 L153.942865,220.959841 L168.729477,222.693868 L177.892083,166.02259 L177.900863,150.576944 C180.989456,134.346911 159.70297,127.327009 159.42199,149.031448" id="Fill-62" fill="#1E8F9A"></path>
                        <path d="M179.740409,106.379026 L183.696091,106.148598 C190.209137,105.806448 193.701639,104.260952 194.25043,103.064589 C194.698243,102.096327 194.816782,100.881344 194.735561,99.5197249 C194.498483,95.6094346 192.896015,88.0076441 191.94551,83.6923595 C190.022548,74.9756708 188.330078,63.8546191 186.303943,57.5469485 C183.759751,49.6169729 179.103812,52.3355557 171.83124,52.6358101 C169.098264,52.4472782 165.711129,50.748164 163.957194,49.6681791 C162.593999,53.8950167 158.434167,56.9720427 153.512614,56.9720427 L153.512614,134.035019 L174.976908,134.035019 L179.740409,106.379026" id="Fill-63" fill="#65A8D0"></path>
                        <path d="M177.889888,75.590145 C177.503539,87.6468733 177.378415,97.6995779 176.043756,109.742341 L167.857997,108.902094 C172.241736,97.140965 174.709098,87.7935092 177.889888,75.590145" id="Fill-64" fill="#5199C7"></path>
                        <path d="M85.1772208,73.3510383 C84.7886772,85.4077666 84.6635529,95.4604712 83.3288944,107.503234 L75.1431354,106.662987 C79.529069,94.9041858 81.994236,85.5544025 85.1772208,73.3510383" id="Fill-65" fill="#DEDFDD"></path>
                        <path d="M36.7365812,75.590145 C37.1229297,87.6468733 37.2480539,97.6995779 38.5849076,109.742341 L46.7684715,108.902094 C42.3825378,97.140965 39.9173709,87.7935092 36.7365812,75.590145" id="Fill-66" fill="#DEDFDD"></path>
                        <path d="M177.881107,92.6231832 L152.502839,96.2564946 L147.337623,104.526293 L181.58654,106.113685 C196.079,106.518679 194.871661,102.219687 194.584094,98.2488806 C194.300919,94.324625 189.179606,90.4981266 177.881107,92.6231832" id="Fill-67" fill="#65A8D0"></path>
                        <path d="M150.795003,107.163411 L157.632933,106.681608 L161.325195,101.446939 L161.689592,96.4310611 L156.506815,96.014429 L153.266755,95.9213268 C155.521187,95.3301282 158.344165,95.5046947 158.33758,93.2702431 L151.234035,93.4424821 L144.753917,97.4086337 L144.753917,105.343264 L150.795003,107.163411" id="Fill-68" fill="#F8D2BD"></path>
                        <path d="M130.030966,75.5412664 L122.872543,92.9327478 L145.390514,96.6475236 L145.390514,105.743604 L118.684173,106.148598 C112.173323,105.806448 108.678625,104.260952 108.129835,103.064589 C106.814933,100.211008 108.327399,95.1951301 109.55669,90.6470901 L120.372253,55.640682 L130.030966,75.5412664" id="Fill-69" fill="#73C2E1"></path>
                        <path d="M129.897061,75.8694514 L122.872543,92.9327478 L145.390514,96.6475236 L145.390514,99.8548926 C135.931561,98.355948 125.023801,95.5302978 116.614136,97.3178591 C120.367863,87.3698944 125.14234,77.843217 128.889482,67.6462041 L129.945354,75.4830775 L129.897061,75.8694514" id="Fill-70" fill="#5199C7"></path>
                        <path d="M34.9497193,92.6301659 L64.2639126,96.7615737 L63.1246235,106.593161 L28.4564302,107.375219 C21.028002,105.715673 25.716868,90.1070976 34.9497193,92.6301659" id="Fill-71" fill="#DEDFDD"></path>
                        <path d="M52.9456573,106.204459 L60.5475033,106.090409 L62.5933943,104.537931 L62.589004,97.4947532 C58.0889219,96.7941595 58.1086783,96.9082096 53.0268783,95.8654655 C51.139039,95.9818432 50.6714695,100.278507 50.9634261,103.97699 C51.1939181,106.877122 51.9753957,106.595488 52.9456573,106.204459" id="Fill-72" fill="#F8D2BD"></path>
                        <path d="M90.3599983,93.6077384 L60.2533516,96.7615737 L61.3948358,106.593161 L96.060834,107.375219 C102.433389,105.994979 100.648723,91.6456106 90.3599983,93.6077384" id="Fill-73" fill="#DEDFDD"></path>
                        <path d="M243.555963,94.001095 L242.269598,100.897637 C233.677734,107.11686 225.074894,113.252292 216.397419,119.357465 L215.9979,119.511084 L218.337942,114.509171 L214.421773,93.7939427 C214.301039,93.6892028 214.186891,93.5844629 214.072743,93.4727403 C218.884538,95.5582284 223.296813,94.6155692 228.93838,92.9071447 C236.415101,94.3479005 239.027344,94.7389295 243.555963,94.001095" id="Fill-74" fill="#2E2E4A"></path>
                        <path d="M243.555963,94.001095 L242.269598,100.897637 C237.866103,104.086385 233.458218,107.251858 229.039357,110.403366 L229.039357,92.9257652 C236.437053,94.3502281 239.049296,94.7342744 243.555963,94.001095" id="Fill-75" fill="#1F2033"></path>
                        <polyline id="Fill-76" fill="#F5C4AB" points="275.175077 66.556909 275.89509 54.0532903 271.717696 53.1245964 268.611542 59.0063247 267.316397 59.0272726 264.521955 64.8182263 265.507583 71.4633922 270.235962 73.618707 275.175077 66.556909"></polyline>
                        <path d="M251.322446,69.1079078 C251.359764,69.4291103 253.914933,83.3199509 257.385484,93.2353298 L265.015867,70.0109987 L271.322567,72.9600093 L260.65408,105.932135 C257.870615,110.473193 254.744704,108.390032 252.99077,105.448004 C252.957842,105.350247 241.874469,75.1292894 241.562756,72.4944985 L251.322446,69.1079078" id="Fill-77" fill="#2E2E4A"></path>
                        <path d="M252.448565,103.96768 C251.414643,101.128065 249.050454,94.6295345 246.787242,88.2543648 C246.651142,86.0687919 246.313087,83.9577007 245.507462,82.2329833 C244.530615,80.1451676 243.527426,78.7812212 244.848914,74.6381755 C248.038484,83.0243516 250.119498,94.7459122 252.439784,103.890871 L252.448565,103.96768" id="Fill-78" fill="#1F2033"></path>
                        <polygon id="Fill-79" fill="#211311" points="11.7139297 210.669726 280.564199 210.669726 280.564199 129.268189 11.7139297 129.268189"></polygon>
                        <polyline id="Fill-80" fill="#362117" points="0.448358341 106.143943 291.829771 106.143943 291.829771 232.869933 277.433898 232.869933 277.433898 132.505816 14.8420355 132.505816 14.8420355 232.869933 0.448358341 232.869933 0.448358341 106.143943"></polyline>
                        <path d="M237.861713,105.564382 C240.80762,106.735141 238.827584,112.993933 235.631428,113.582805 L230.066693,109.746996 L231.489158,105.338609 L237.861713,105.564382" id="Fill-81" fill="#F8D2BD"></path>
                        <path d="M217.253532,74.2634394 L210.514385,97.7275085 L232.481371,104.991804 L230.751583,110.26604 L204.111097,105.536451 C200.936893,103.946732 201.378121,104.777669 201.733737,101.074531 L206.214063,70.0016885 L217.253532,74.2634394" id="Fill-82" fill="#444568"></path>
                        <path d="M212.327589,91.4128553 L210.514385,97.7275085 L232.481371,104.991804 L231.798676,107.077292 L208.152391,99.6919639 C210.106085,91.1102733 209.22363,86.5249924 213.826884,76.4583225 C210.505604,85.228545 210.531946,87.9191971 212.327589,91.4128553" id="Fill-83" fill="#2E2E4A"></path>
                    </g>
                    <g id="Group-85" transform="translate(273.542351, 239.765854)">
                        <polygon id="Fill-135" fill="#708188" points="268.045151 193.938514 272.615857 193.938514 272.615857 150.071469 268.045151 150.071469"></polygon>
                        <polygon id="Fill-136" fill="#5A6E6F" points="312.609536 193.938514 317.180242 193.938514 317.180242 150.071469 312.609536 150.071469"></polygon>
                        <path d="M268.539941,129.292343 L316.685452,129.292343 C321.986578,129.292343 326.321654,133.982701 326.321654,139.702799 L326.321654,145.430973 C326.321654,151.15309 321.980972,155.843449 316.685452,155.843449 L268.539941,155.843449 C263.246289,155.843449 258.903738,151.159147 258.903738,145.430973 L258.903738,139.702799 C258.903738,133.976644 263.240684,129.292343 268.539941,129.292343" id="Fill-137" fill="#18788A"></path>
                        <polygon id="Fill-138" fill="#708188" points="338.891096 193.938514 343.461802 193.938514 343.461802 150.071469 338.891096 150.071469"></polygon>
                        <polygon id="Fill-139" fill="#5A6E6F" points="383.455481 193.938514 388.026187 193.938514 388.026187 150.071469 383.455481 150.071469"></polygon>
                        <path d="M339.38562,129.292343 L387.531664,129.292343 C392.830775,129.292343 397.1676,133.982701 397.1676,139.702799 L397.1676,145.430973 C397.1676,151.15309 392.825169,155.843449 387.531664,155.843449 L339.38562,155.843449 C334.092114,155.843449 329.749684,151.159147 329.749684,145.430973 L329.749684,139.702799 C329.749684,133.976644 334.086509,129.292343 339.38562,129.292343" id="Fill-140" fill="#18788A"></path>
                        <path d="M381.256393,46.3419885 C382.650023,46.2854369 384.367711,45.7179712 385.883097,46.1508832 C387.192435,48.775656 387.299205,59.6004063 385.708893,59.912415 C371.161937,62.7711943 354.174253,59.912415 340.033773,59.912415 C340.033773,56.9658832 340.043139,48.9433606 340.06187,48.7425051 C340.473965,44.1325772 341.998717,43.1438997 347.221086,43.2199519 C347.85796,43.2082515 350.26497,43.223852 351.044204,43.2550528 C357.165689,42.8396913 361.258543,40.088165 359.840561,33.4774816 C364.210642,33.565234 367.938229,33.565234 372.30831,33.4774816 C370.890328,40.088165 375.133035,45.926627 381.256393,46.3419885" id="Fill-141" fill="#A07D5A"></path>
                        <path d="M380.965661,44.5827909 C382.331043,44.5262406 384.56814,46.655652 386.052809,47.0885543 C387.333772,49.7152183 387.108044,59.5998211 385.549967,59.9118228 C379.442452,61.1383793 372.892657,61.3119302 366.315333,61.1130292 L366.315333,33.5418319 C368.297339,33.5418319 370.28118,33.5203818 372.421013,33.4774816 C371.031773,40.0880169 376.623599,44.0523881 380.965661,44.5827909" id="Fill-142" fill="#A07D5A"></path>
                        <polyline id="Fill-143" fill="#95BA3E" points="345.984257 127.013826 362.293837 129.292343 367.833045 129.292343 384.144492 127.013826 384.598158 125.454841 380.044693 94.6604651 350.321156 94.6604651 345.747155 125.553138 345.984257 127.013826"></polyline>
                        <polyline id="Fill-144" fill="#879F3D" points="366.315333 129.292343 368.967916 129.292343 385.286906 127.013826 385.740834 125.454841 381.184743 94.6604651 366.315333 94.6604651 366.315333 129.292343"></polyline>
                        <path d="M356.970926,22.0847616 C356.196469,20.9770227 355.6645,20.7530969 355.143809,21.1593339 C354.901321,21.3515534 354.814853,21.9579364 354.957714,22.7208693 C355.20772,24.052534 356.002855,26.0381411 356.254741,27.2053294 C356.423919,27.9979869 357.281084,30.4096475 358.079978,29.9459429 C358.273592,31.6323218 358.164567,32.8946289 358.623226,34.0538906 C359.001055,35.0070613 360.54621,35.898801 361.409015,36.772706 C362.4222,37.8011792 362.777473,38.564112 363.516214,38.8950466 C364.275633,39.2339077 364.97302,39.2576874 366.375314,39.2477792 C366.412909,39.2477792 366.452383,39.2477792 366.489978,39.2438159 C367.787006,39.237871 368.458076,39.1922931 369.193059,38.8573953 C369.922401,38.5145709 370.279554,37.7516381 371.2871,36.7092934 C372.142386,35.8254802 373.678141,34.9238323 374.052212,33.9666983 C374.497712,32.8252714 374.401845,31.5946706 374.578542,29.9598144 C375.369916,30.3521798 376.208285,27.9880787 376.375582,27.2053294 C376.625589,26.0381411 377.422603,24.052534 377.67261,22.7208693 C377.815471,21.9579364 377.730882,21.3515534 377.484635,21.1593339 C376.971463,20.7570602 376.443253,20.9690961 375.683834,22.0510737 C375.631201,21.1058296 375.56917,20.1308608 375.597366,19.094461 C375.649999,17.1742481 375.695113,15.5829881 375.471423,14.2334886 C375.243973,12.8740809 374.7402,11.7465256 373.68754,10.7517403 C372.247652,9.39629594 370.30775,8.550134 368.251304,8.2291077 C366.185459,7.90609975 364.004949,8.11020906 362.083845,8.84539894 C362.081965,8.84738058 362.081965,8.84738058 362.081965,8.84738058 C362.004896,8.87710524 361.927826,8.9068299 361.852636,8.9385362 C361.828199,8.94844442 361.803762,8.96033428 361.779326,8.9702425 C361.726693,8.9880773 361.67406,9.01185703 361.625186,9.03365511 C361.587591,9.04950826 361.551876,9.06536141 361.51804,9.08517785 C361.478566,9.101031 361.437211,9.11688415 361.395857,9.13868223 C361.358262,9.15651703 361.322546,9.17435182 361.284951,9.19020497 C361.247356,9.20605812 361.207882,9.22587456 361.170287,9.245691 C361.14397,9.25956251 361.119533,9.27343402 361.091337,9.28532388 C361.044343,9.31108525 360.99547,9.33684662 360.948476,9.36062635 C360.940957,9.36260799 360.933438,9.36657128 360.925919,9.36855292 C360.204095,9.75299183 359.542423,10.2186781 358.955941,10.7656118 C358.955941,10.7675935 358.955941,10.7675935 358.955941,10.7675935 C357.899522,11.7643604 357.39199,12.8978607 357.16642,14.2651949 C356.94085,15.6186577 356.993483,17.2158626 357.047995,19.1440021 C357.078071,20.1724753 357.017919,21.1434808 356.970926,22.0847616" id="Fill-145" fill="#A07D5A"></path>
                        <path d="M366.315333,39.2494611 L366.373614,39.2494611 C366.411215,39.2494611 366.450695,39.2494611 366.488296,39.2454974 C367.785517,39.2395519 368.456688,39.1939692 369.19178,38.8590357 C369.921232,38.5161748 370.278438,37.7531607 371.286135,36.710705 C372.141549,35.8267977 373.677534,34.9250537 374.05166,33.9678177 C374.497227,32.8262693 374.401346,31.5955374 374.578069,29.9605071 C375.369562,30.3529143 376.208055,27.9885614 376.375378,27.2057287 C376.625422,26.0384162 377.422555,24.0525975 377.672599,22.720791 C377.815482,21.9577768 377.73088,21.3513292 377.484596,21.1590893 C376.971348,20.7567728 376.443059,20.9688312 375.683527,22.050924 C375.630886,21.1055792 375.568845,20.1305066 375.597045,19.0939965 C375.649686,17.173579 375.694807,15.5821495 375.471083,14.2325063 C375.2436,12.8729538 374.739751,11.7452784 373.686934,10.7503872 C372.24683,9.39479842 370.306639,8.54854636 368.249885,8.22748586 C367.610674,8.12839311 366.962064,8.07884674 366.315333,8.08071742 L366.315333,39.2494611" id="Fill-146" fill="#A07D5A"></path>
                        <path d="M358.466284,13.2051947 C357.828046,14.0174924 356.553398,18.9088103 356.771021,24.2423142 C354.744753,16.4115305 353.599948,10.6884354 357.345252,6.91329636 C358.173682,5.51076794 357.239184,4.79392008 358.517489,0 C359.689725,2.60441737 362.131123,2.26352504 363.319818,3.00764429 L362.988812,2.07067738 C364.327466,3.16932465 365.920318,3.38359983 367.469279,3.74397171 C370.08258,4.18031389 372.011924,5.40947422 372.306355,6.33475339 C377.225725,8.17167603 375.25249,16.4699692 373.895549,23.0735405 C373.853487,19.7620151 373.198791,15.6498797 371.638857,12.7610607 C371.267618,12.3792613 370.83603,12.1338188 370.503195,12.3013431 C365.909345,14.6330466 359.027714,12.4883469 358.466284,13.2051947" id="Fill-147" fill="#1A100F"></path>
                        <path d="M366.315333,3.46318775 C367.085094,3.71939383 367.882086,3.86986407 368.670001,4.0650687 C371.264311,4.52054618 373.179634,5.80360996 373.471925,6.76946622 C378.355546,8.68694506 376.396651,17.3491506 375.049571,24.2423142 C375.007815,20.7855655 374.357876,16.493097 372.809278,13.4775921 C372.440737,13.0790493 372.012286,12.8228432 371.68187,12.997714 C370.053391,13.865968 368.134437,14.1404745 366.315333,14.1648751 L366.315333,3.46318775" id="Fill-148" fill="#1A100F"></path>
                        <path d="M387.789981,56.5723688 L387.520219,64.4562594 L384.222709,113.1308 L347.327576,113.1308 L345.041202,63.0751975 C343.784828,63.4323006 342.498271,64.8232273 341.287172,64.7837683 C339.821402,64.7383906 338.221695,60.117752 336.804973,60.117752 C336.80686,57.1366313 336.588032,50.2056735 336.606896,50.0024601 C337.021915,45.3384167 338.783857,43.152393 344.043271,43.2293379 C344.684663,43.2175002 349.853529,43.2332838 350.638291,43.2648509 C353.079353,43.0971505 355.197833,42.5605093 356.780563,41.558253 C357.933182,45.1746622 361.523091,47.8105175 365.775143,47.8105175 C370.004557,47.8105175 373.579375,45.2022835 374.750858,41.6174413 C376.256243,42.534861 378.94443,44.2118648 381.291171,44.3716734 C382.694687,44.314458 385.73564,44.7287765 387.258003,45.1647975 C387.512673,47.1436619 387.805073,46.1118114 387.931465,47.9999203 C388.144633,51.1566332 387.954102,54.173267 387.789981,56.5723688" id="Fill-149" fill="#EB9592"></path>
                        <polyline id="Fill-150" fill="#1A100F" points="351.95965 187.012138 362.296397 187.012138 364.02998 195.09291 349.175185 194.991424 351.95965 187.012138"></polyline>
                        <polyline id="Fill-151" fill="#231712" points="349.175185 195.09291 353.621506 191.629722 361.049823 191.629722 364.02998 195.09291 349.175185 195.09291"></polyline>
                        <path d="M358.399232,127.183925 L362.887304,189.030792 L350.225604,190.475326 L342.536868,141.731304 L342.572577,128.454395 C339.973329,114.493233 358.218807,108.527027 358.399232,127.183925" id="Fill-152" fill="#95BA3E"></path>
                        <polyline id="Fill-153" fill="#1A100F" points="377.243334 188.166534 366.906024 188.166534 365.172657 196.247306 380.027452 196.143733 377.243334 188.166534"></polyline>
                        <polyline id="Fill-154" fill="#231712" points="380.027452 195.09291 375.581682 191.629722 368.154284 191.629722 365.172657 195.09291 380.027452 195.09291"></polyline>
                        <path d="M370.959851,127.154702 L366.315333,188.984794 L378.847717,190.475326 L386.616492,141.761921 L386.623935,128.483177 C389.242059,114.534193 371.198032,108.500037 370.959851,127.154702" id="Fill-155" fill="#879F3D"></path>
                        <path d="M388.838168,90.8272031 L392.237236,90.6277707 C397.828826,90.3394823 400.830111,89.0263876 401.301419,88.0134288 C401.68412,87.1920041 401.787808,86.1612742 401.718054,85.0061457 C401.514449,81.6908284 400.138232,75.2418551 399.320043,71.5790119 C397.668582,64.1842155 396.21507,54.7496794 394.476889,49.3985717 C392.291908,42.6711827 388.291451,44.9755159 382.045686,45.2322111 C379.700461,45.0722702 376.787782,43.6308279 375.283369,42.7126489 C374.112642,46.300458 370.540132,48.9108508 366.315333,48.9108508 L366.315333,114.285196 L384.749105,114.285196 L388.838168,90.8272031" id="Fill-156" fill="#E7817D"></path>
                        <path d="M386.883511,64.6461713 C386.529534,74.834563 386.415541,83.3294787 385.199619,93.5060692 L377.742099,92.7960288 C381.737842,82.8574297 383.983697,74.9604427 386.883511,64.6461713" id="Fill-157" fill="#DD6563"></path>
                        <path d="M386.376021,78.9947628 L364.962149,81.9653784 L360.601951,88.7243845 L389.500768,90.0214138 C401.73118,90.3504256 400.71059,86.8377964 400.469798,83.5933213 C400.229005,80.3849805 395.909556,77.2603189 386.376021,78.9947628" id="Fill-158" fill="#E7817D"></path>
                        <path d="M363.612805,91.1972774 L369.611709,90.7969424 L372.85181,86.4454751 L373.171392,82.2796705 L368.624085,81.9315531 L365.782499,81.8541937 C367.761598,81.3648953 370.235472,81.5099442 370.229696,79.6533182 L363.999769,79.7964331 L358.316597,83.0938783 L358.316597,89.6849007 L363.612805,91.1972774" id="Fill-159" fill="#F8D2BD"></path>
                        <path d="M345.30509,64.158217 L339.240988,78.866218 L358.316597,82.0058408 L358.316597,89.7003771 L335.694762,90.0428815 C330.177377,89.7535244 327.21692,88.4464964 326.752024,87.4347309 C325.638133,85.0214534 326.919387,80.7795179 327.960753,76.9332339 L337.124782,47.3302326 L345.30509,64.158217" id="Fill-160" fill="#EB9592"></path>
                        <path d="M345.92428,64.7953301 L339.787699,79.4709574 L359.459274,82.6643578 L359.459274,85.4252978 C351.195985,84.1359248 341.667027,81.7053366 334.32039,83.2449761 C337.601543,74.685862 341.770582,66.4911359 345.044064,57.7197958 L345.966469,64.4609741 L345.92428,64.7953301" id="Fill-161" fill="#E7817D"></path>
                        <path d="M305.716427,31.9466883 C306.632825,44.0262446 290.33812,56.0508046 280.25583,56.5261303 C270.467552,56.989671 287.62329,53.3638399 283.123393,44.8845806 C273.20911,26.1897485 288.484322,11.3250197 296.85982,19.715892 C304.2731,16.3277238 305.30023,26.4490171 305.716427,31.9466883" id="Fill-162" fill="#E0C07A"></path>
                        <path d="M306.028565,32.7442733 C306.374831,37.2885001 302.533206,50.8281582 309.181506,54.7865439 C307.479034,57.7553331 299.172506,56.5044833 294.788399,54.6776883 L294.326711,18.4703347 C295.261628,18.8681524 296.158072,19.4678478 296.989109,20.301088 C304.458828,16.8869804 305.609199,27.2064918 306.028565,32.7442733" id="Fill-163" fill="#D6B362"></path>
                        <path d="M288.757277,43.8670448 C289.653634,47.49149 289.087808,51.4033709 287.819836,53.1161723 C287.496774,53.5552007 286.096216,53.897761 284.675117,54.1792904 C282.734877,54.5631941 280.297906,54.8663797 279.250288,55.0947532 C276.29231,55.7444365 275.91696,59.8020039 276.073823,61.4478682 C276.279238,63.5977292 278.129842,63.2354816 278.658319,65.0191575 C278.779701,65.4286549 278.91042,66.3598676 279.043006,67.3993608 C280.288569,68.1120437 281.582684,68.7361334 282.923485,69.263755 L304.288532,69.263755 C305.044834,68.9645069 305.788063,68.6376965 306.514486,68.2793864 L306.983206,64.3064746 L311.466859,61.014746 C311.390295,53.3347021 304.127935,55.3172205 300.3595,53.7087622 C297.282007,52.3956145 297.502361,49.5645703 297.754462,43.9910753 L288.757277,43.8670448" id="Fill-164" fill="#F5C4AB"></path>
                        <path d="M294.326711,69.263755 L305.199247,69.263755 C305.979988,68.9636928 306.747234,68.6340192 307.497131,68.2767083 L307.980997,64.2929881 L312.609536,60.9923041 C312.530498,53.2913662 305.03346,55.2792781 301.143251,53.6664439 C297.966312,52.3497237 298.193787,49.5109775 298.454034,43.9223194 L294.326711,43.8670448 L294.326711,69.263755" id="Fill-165" fill="#F4BE9F"></path>
                        <path d="M308.691527,67.0646215 L308.074416,70.3619996 C308.60712,71.4280394 308.907235,72.6429674 308.907235,73.9313469 C308.907235,76.2917218 307.898099,78.4019644 306.309366,79.8074694 L302.99685,97.5271547 L293.336906,101.586841 L284.716109,97.5271547 L281.369829,79.8570988 C279.747334,78.4555642 278.711938,76.3214994 278.711938,73.9313469 C278.711938,72.627086 279.019556,71.4002469 279.563514,70.3242813 L279.205252,68.4324081 L272.615857,71.7536083 C273.349262,68.2259497 273.988882,59.7075574 274.557224,58.2325713 C275.532597,55.7054416 276.952515,54.9669559 279.539129,54.9212969 C280.705826,54.8021863 283.540034,54.6691795 284.691725,54.4428694 C285.502035,54.2820701 289.401651,55.1257701 293.254374,55.0900369 C297.202759,55.0523185 301.108002,54.135167 301.593813,54.270159 C303.927205,54.5322023 308.177581,54.1748705 310.257751,55.2607621 C311.328786,55.8205818 312.49173,57.1427094 312.799348,58.3933706 C313.129474,59.7452758 313.555262,65.293844 313.752212,69.3674262 L308.691527,67.0646215" id="Fill-166" fill="#FCE7E6"></path>
                        <path d="M308.810204,67.1238499 L308.207564,70.4365251 C308.727776,71.5075104 309.020853,72.7280746 309.020853,74.0224312 C309.020853,76.3937562 308.035382,78.5137885 306.483906,79.9258138 L303.24907,97.7277036 L294.326711,101.586841 L294.326711,55.0817469 C297.971855,54.9640782 301.42833,54.1423911 301.878936,54.2700318 C304.157608,54.5332908 308.30831,54.1743013 310.339699,55.2652305 C311.385617,55.8276473 312.52129,57.1559084 312.821693,58.4123716 C313.144078,59.7705485 313.559881,65.3448575 313.752212,69.4373377 L308.810204,67.1238499" id="Fill-167" fill="#F5D7D4"></path>
                        <path d="M283.860654,32.4572802 C283.378445,32.1569493 283.012788,32.3890232 282.916803,32.872673 C282.772826,33.5844964 283.590982,34.9515874 283.856083,35.7862734 C283.782952,34.6337046 282.95794,33.512339 283.127056,32.8921751 C283.229897,32.5099357 283.590982,32.445579 283.963495,32.7888144 C283.926929,32.6776529 283.892649,32.5664915 283.860654,32.4572802" id="Fill-168" fill="#DE9E71"></path>
                        <path d="M296.61464,46.3073892 C297.641639,45.3309063 298.424911,44.4159497 299.399815,42.7408449 C300.097504,41.5361191 300.540304,40.5596362 300.888219,39.2139951 C301.721725,39.3965895 302.065918,38.6701815 302.281736,37.6500347 C302.596162,36.1515701 303.163615,34.6590597 303.411063,33.3451741 C303.716185,31.7355651 302.73756,30.8305322 301.902193,32.1503719 C301.987777,30.7630517 301.971032,29.3955787 301.757074,28.0975709 C300.970081,23.2746981 297.993274,19.606933 293.18387,19.6247955 C287.857246,19.642658 285.254401,21.8973015 284.474849,27.3334532 C284.229263,29.0403136 284.149261,30.4593893 284.193913,31.8010609 C283.436688,31.0309891 282.685044,31.9062512 282.956678,33.3451741 C283.205985,34.6590597 283.773439,36.1515701 284.087864,37.6500347 C284.296241,38.6384259 284.62555,39.3509409 285.405101,39.2278882 C285.838599,40.8275736 286.365122,42.0561161 287.215372,43.3322919 C288.050739,44.5826663 288.698194,45.4241882 289.535421,46.2021989 C291.243364,47.7840218 292.166174,48.4846285 293.118752,48.4846285 C294.093657,48.4846285 295.096469,47.7463121 296.61464,46.3073892" id="Fill-169" fill="#F8D2BD"></path>
                        <path d="M297.756186,46.3092243 C298.783354,45.3326742 299.566756,44.4176548 300.541821,42.7424348 C301.239625,41.537626 301.682498,40.561076 302.03047,39.2153424 C302.864113,39.3979493 303.208363,38.6714913 303.424217,37.6512744 C303.738694,36.1527067 304.306242,34.6600936 304.55373,33.3461178 C304.858903,31.7363981 303.880116,30.8313029 303.044612,32.1512333 C303.130209,30.7638177 303.113462,29.3962507 302.899468,28.0981536 C302.112345,23.2749491 299.136908,19.6069318 294.326711,19.6246661 L294.326711,48.4846285 C295.281307,48.4528707 296.27312,47.7145036 297.756186,46.3092243" id="Fill-170" fill="#F5C4AB"></path>
                        <path d="M282.899682,35.1990804 C274.741402,21.3531989 290.508688,11.3543754 297.616183,18.5722638 C297.360835,18.6506552 299.642435,19.226832 299.943709,21.8666625 C302.115086,26.0880396 300.09802,22.6015819 299.802257,22.6231396 C301.60439,26.1840691 302.684567,27.0483343 302.216123,29.7430388 C302.030582,30.7934836 301.347205,33.4509521 300.785071,35.4714905 C301.075323,33.3490433 301.134108,31.7361402 301.200242,30.160473 C301.321486,27.2501921 299.816953,24.880812 299.45322,22.8916301 L299.466079,22.6231396 L299.449546,22.6231396 C297.840302,28.5397307 280.968957,25.2786484 287.815592,46.1758366 C287.468392,45.7054882 284.281134,34.6581797 284.145193,34.19959 C283.191771,35.9731955 282.873964,38.0564471 284.099267,40.345476 C283.002556,38.7580501 282.69026,36.9609272 282.899682,35.1990804" id="Fill-171" fill="#E0C07A"></path>
                        <path d="M294.326711,16.1615428 C295.99551,16.4056514 297.574491,17.1659897 298.864262,18.5325977 C298.614571,18.6126333 300.845623,19.200895 301.140223,21.896094 C303.263495,26.2060114 301.291115,22.6464278 301.001905,22.6684376 C302.764113,26.304055 303.82036,27.1864475 303.360497,29.9376715 C303.180863,31.0101486 302.512625,33.7233557 301.962946,35.7862734 C302.246767,33.6193094 302.30425,31.9725768 302.368918,30.3638611 C302.487477,27.3925392 301.016275,24.9714621 300.6606,22.9425595 L300.673175,22.6684376 L300.657008,22.6684376 C300.046253,25.0074782 297.199056,25.9418939 294.326711,27.4485642 L294.326711,16.1615428" id="Fill-172" fill="#D6B362"></path>
                        <path d="M309.163762,131.14141 C311.355832,124.402451 310.195107,116.902514 307.738731,110.407228 L302.09221,96.9692569 L284.07879,96.9692569 L278.177205,110.920539 C275.948169,116.878546 274.395607,123.150132 275.053598,129.603474 C275.682016,135.745234 307.15652,137.317125 309.163762,131.14141" id="Fill-173" fill="#FCE7E6"></path>
                        <path d="M312.183258,129.794883 C313.513621,123.419271 311.508682,116.333484 309.220007,110.390759 L303.47953,96.9692569 L294.326711,96.9692569 L294.552196,134.883803 C295.62513,135.31669 311.008856,135.418429 312.183258,129.794883" id="Fill-174" fill="#F5D7D4"></path>
                        <path d="M305.753477,79.4482112 L304.656739,85.4327709 C297.329555,90.8295794 289.994885,96.1536764 282.598453,101.451516 L282.255957,101.586841 L284.251047,97.2443488 L280.912172,79.2664325 C280.811107,79.1775629 280.711914,79.0866735 280.614593,78.9897249 C284.717067,80.7994331 288.478916,79.979409 293.290714,78.4989223 C299.66527,79.749156 301.890563,80.0884763 305.753477,79.4482112" id="Fill-175" fill="#F5D7D4"></path>
                        <path d="M306.896153,79.4222545 L305.782501,85.343972 C301.968339,88.0819919 298.152276,90.8000262 294.326711,93.5060692 L294.326711,78.4989223 C300.73306,79.7220377 302.99077,80.0537978 306.896153,79.4222545" id="Fill-176" fill="#E6B1B0"></path>
                        <path d="M312.787981,58.8741917 C312.819254,59.1486187 314.96059,70.9272632 317.870894,79.3397345 L320.608272,90.1095141 C318.275614,93.9613638 315.655972,92.1943698 314.186104,89.6988608 C314.158509,89.6179147 304.870189,63.9816931 304.6108,61.7467911 L312.787981,58.8741917" id="Fill-177" fill="#F5D7D4"></path>
                        <path d="M313.752212,88.8884855 C312.889637,86.4316496 310.921431,80.8045077 309.037289,75.2841848 C308.922157,73.3936909 308.644378,71.5636605 307.971862,70.0702106 C307.158629,68.2623502 306.323466,67.0812953 307.425442,63.4917754 C310.078958,70.7554642 311.809591,80.9052803 313.744902,88.8219756 L313.752212,88.8884855" id="Fill-178" fill="#E6B1B0"></path>
                        <path d="M301.075652,90.2325648 C303.628123,91.214225 301.911905,96.4725603 299.146568,96.9692569 L294.326711,93.74464 L295.558284,90.0428815 L301.075652,90.2325648" id="Fill-179" fill="#F8D2BD"></path>
                        <path d="M283.698871,63.6941734 L277.983043,83.8739135 L296.612064,90.1220255 L295.145417,94.6604651 L272.555705,90.5924858 C269.864371,89.2251482 270.238478,89.9398473 270.539997,86.7547316 L274.3369,60.0285876 L283.698871,63.6941734" id="Fill-180" fill="#FCE7E6"></path>
                        <path d="M279.571822,77.611911 L278.037049,83.0876351 L296.612064,89.3868371 L296.033045,91.1972774 L276.043887,84.7931223 C277.693721,77.3515466 276.947676,73.3754403 280.84121,64.6461713 C278.031482,72.2512316 278.055608,74.5824005 279.571822,77.611911" id="Fill-181" fill="#F5D7D4"></path>
                        <path d="M293.178448,133.181916 L293.140605,145.314009 L293.41812,180.217598 L293.441547,180.217598 L292.041358,193.850323 L293.688427,195.09291 L299.047708,194.948008 L300.674954,192.748669 L298.409784,180.227522 L298.46745,180.227522 L303.468124,147.203694 L302.900479,133.942157 C304.158307,125.758155 293.513629,121.097462 293.178448,133.181916" id="Fill-182" fill="#F5C4AB"></path>
                        <path d="M287.398892,122.366187 C282.577599,122.391176 278.133056,123.054339 277.319871,127.892548 C276.820023,130.870055 277.720868,132.117571 280.106336,133.10751 C283.713447,134.606836 289.849639,134.925923 292.783447,135.064322 C292.809559,129.543728 295.329314,122.320054 287.398892,122.366187" id="Fill-183" fill="#F8D2BD"></path>
                        <path d="M298.968661,122.366187 C303.791741,122.391176 308.236211,123.054339 309.047518,127.892548 C309.549223,130.870055 308.646527,132.117571 306.262963,133.10751 C302.654046,134.606836 296.517954,134.925923 293.586058,135.064322 C293.558082,129.543728 291.038368,122.320054 298.968661,122.366187" id="Fill-184" fill="#F5C4AB"></path>
                        <path d="M297.611906,195.09291 L299.948039,195.03291 L301.664498,192.816931 L299.275141,180.20105 L299.335968,180.20105 L304.6108,146.927363 L304.012035,133.565489 C304.454931,130.807515 303.495007,128.449537 302.006649,126.983551 L300.554407,133.013494 L298.440673,136.561461 L299.012826,147.385359 L296.612064,182.381029 L297.611906,195.09291" id="Fill-185" fill="#F4BE9F"></path>
                        <polyline id="Fill-186" fill="#2E2E4A" points="292.681405 188.66511 292.041358 193.813802 293.860049 195.09291 299.480284 194.998021 301.18277 192.582139 299.993059 187.012138 298.257371 191.265076 293.686665 191.230916 292.681405 188.66511"></polyline>
                        <path d="M293.132415,133.313155 L293.172162,145.41755 L292.880686,180.24715 L292.856081,180.24715 L294.326711,193.852957 L292.59678,195.09291 L286.967881,194.946334 L285.25877,192.753638 L287.637898,180.259034 L287.577332,180.259034 L281.757269,147.065538 L282.353471,133.834094 C280.46266,125.665459 293.234621,121.135472 293.132415,133.313155" id="Fill-187" fill="#F8D2BD"></path>
                        <path d="M293.081411,133.25325 L293.122855,145.369382 L292.818931,180.232754 L292.793275,180.232754 L294.326711,193.851755 L292.522901,195.09291 L290.259256,195.037395 L290.438848,179.92544 L288.183098,149.87997 L287.470652,134.738275 L290.20005,130.804646 L291.952549,128.137947 C292.664995,129.331518 293.101146,131.008861 293.081411,133.25325" id="Fill-188" fill="#F5C4AB"></path>
                        <polyline id="Fill-189" fill="#444568" points="293.686665 188.66511 294.326711 193.813802 292.50802 195.09291 286.88963 194.998021 285.185299 192.584037 286.376855 187.012138 288.112543 191.263178 292.681405 191.230916 293.686665 188.66511"></polyline>
                        <polygon id="Fill-190" fill="#889BA3" points="239.478237 198.556098 247.476973 198.556098 247.476973 94.6604651 239.478237 94.6604651"></polygon>
                        <polygon id="Fill-191" fill="#708188" points="412.022395 198.556098 420.021131 198.556098 420.021131 94.6604651 412.022395 94.6604651"></polygon>
                        <polygon id="Fill-192" fill="#708188" points="225.766119 109.667612 433.733249 109.667612 433.733249 94.6604651 225.766119 94.6604651"></polygon>
                        <polygon id="Fill-193" fill="#5A6E6F" points="329.749684 109.667612 433.733249 109.667612 433.733249 94.6604651 329.749684 94.6604651"></polygon>
                        <path d="M348.138452,60.0285876 L390.207489,60.0285876 C392.778511,60.0285876 394.882247,62.2719123 394.882247,65.0135294 L394.882247,90.8299193 C394.882247,93.5715364 392.778511,95.814861 390.207489,95.814861 L348.138452,95.814861 C345.565538,95.814861 343.461802,93.5715364 343.461802,90.8299193 L343.461802,65.0135294 C343.461802,62.2719123 345.565538,60.0285876 348.138452,60.0285876" id="Fill-194" fill="#FFFFFF"></path>
                        <path d="M369.537475,60.0285876 L390.105148,60.0285876 C392.619222,60.0285876 394.676359,62.2719123 394.676359,65.0135294 L394.676359,90.8299193 C394.676359,93.5715364 392.619222,95.814861 390.105148,95.814861 L369.537475,95.814861 L369.537475,60.0285876" id="Fill-195" fill="#B9B9B9"></path>
                        <path d="M272.426672,62.3373795 L315.082182,62.3373795 C317.492397,62.3373795 319.465595,64.4373983 319.465595,67.002522 L319.465595,91.1517319 C319.465595,93.7168556 317.492397,95.814861 315.082182,95.814861 L272.426672,95.814861 C270.016457,95.814861 268.045151,93.7168556 268.045151,91.1517319 L268.045151,67.002522 C268.045151,64.4373983 270.016457,62.3373795 272.426672,62.3373795" id="Fill-196" fill="#FFFFFF"></path>
                        <path d="M294.326711,62.3373795 L314.892871,62.3373795 C317.406759,62.3373795 319.465595,64.4373983 319.465595,67.002522 L319.465595,91.1517319 C319.465595,93.7168556 317.406759,95.814861 314.892871,95.814861 L294.326711,95.814861 L294.326711,62.3373795" id="Fill-197" fill="#D0D0D0"></path>
                        <g id="Group-87-Copy" transform="translate(0.000000, 149.853659)">
                            <path d="M0.787871341,56.8978157 L53.508105,56.8978157 L53.508105,73.7898654 C50.8046814,80.3504271 46.5388595,83.630708 40.7106393,83.630708 C34.8824192,83.630708 24.7837466,83.630708 10.4146217,83.630708 C3.99678812,80.9928812 0.787871341,77.7126004 0.787871341,73.7898654 C0.787871341,69.8671304 0.787871341,64.2364472 0.787871341,56.8978157 Z" id="Path-91" fill="#EDC033"></path>
                            <path d="M4.01183715,58.8506819 C10.5330846,70.8188693 17.1403816,77.3685008 23.8337282,78.4995763 C30.5270748,79.6306518 38.4528859,79.6306518 47.6111615,78.4995763 C50.171871,76.8520336 51.474528,74.2736213 51.5191326,70.7643393 C51.5637372,67.2550574 51.5414349,63.2838383 51.4522257,58.8506819 L4.01183715,58.8506819 Z" id="Path-92" fill="#FCA10A"></path>
                            <polygon id="Rectangle-38" fill="#141870" points="12.4358032 84.8722542 18.6429071 84.8722542 18.6429071 88.128223 12.4358032 88.128223"></polygon>
                            <polygon id="Rectangle-38-Copy" fill="#141870" points="34.1606669 84.8722542 40.3677709 84.8722542 40.3677709 88.128223 34.1606669 88.128223"></polygon>
                            <path d="M21.4164539,55.1779034 C21.4164539,51.4504396 20.9259337,47.2622739 19.9448932,42.6134065" id="Path-93" stroke="#1937A7" stroke-width="1.87357775"></path>
                            <path d="M19.2585741,43.3602163 C17.0028055,49.1254649 14.2873854,50.8471018 11.1123138,48.5251268 C7.93724229,46.2031518 6.69563799,43.8857059 7.38750094,41.572789 C11.8570038,42.9410403 14.1444685,42.7691746 14.2498953,41.0571918 C14.4080354,38.4892176 9.00809618,42.0351101 6.76891411,37.5871014 C5.27612607,34.6217622 4.52973205,32.7747421 4.52973205,32.0460409 C9.50501055,35.1720424 12.1918018,35.6523606 12.5901058,33.4869956 C13.1875619,30.238948 5.09924091,33.5906871 5.0511854,27.6699011 C5.03112231,25.1979832 5.45963965,25.7828915 6.76891411,26.0902144 C7.28984211,26.2124906 8.38000908,26.3351327 10.039415,26.4581405 C8.2785159,23.4761154 7.64322893,20.5346133 8.13355414,17.6336344 C8.86904195,13.282166 10.9303164,23.3152147 12.5901058,24.0757384 C14.2498953,24.8362621 15.8336821,26.9401273 15.5347836,21.4948922 C15.2358852,16.049657 20.5550503,24.7543816 15.8336821,28.1740565 C11.1123138,31.5937314 20.0308704,33.9947265 20.1167568,28.1740565 C20.2026432,22.3533865 28.4354715,30.4123631 23.8470228,34.4001961 C20.788057,37.0587514 18.9151419,38.388029 18.2282777,38.388029 C20.0162151,41.9285582 22.639614,41.2661243 26.0984744,36.4007273 C31.2867648,29.1026319 28.3935508,42.398388 24.9505953,42.8793022 C22.6552917,43.1999116 20.7579513,43.3602163 19.2585741,43.3602163 Z" id="Path-94" fill="url(#linearGradient-4)"></path>
                            <path d="M43.4719924,29.7277304 C41.0727532,36.0621329 38.184628,37.9537322 34.8076166,35.4025284 C31.4306053,32.8513246 30.1100329,30.305097 30.8458995,27.7638456 C35.5996701,29.2671727 38.0326214,29.0783402 38.1447534,27.1973479 C38.3129515,24.3758595 32.5695673,28.2718078 30.1879695,23.384685 C28.6002377,20.1266032 27.8063718,18.0972425 27.8063718,17.296603 C33.0980862,20.7312079 35.9557618,21.2589438 36.3793986,18.8798107 C37.0148539,15.3111111 28.4121024,18.9937388 28.3609905,12.4884442 C28.3396513,9.77249489 28.7954231,10.4151462 30.1879695,10.7528085 C30.7420294,10.887156 31.9015328,11.0219054 33.6664797,11.1570568 C31.7935845,7.88064173 31.1178922,4.64875027 31.6394029,1.46138244 C32.421669,-3.3196693 34.6140439,7.70385674 36.3793986,8.53946045 C38.1447534,9.37506415 39.8292716,11.6866261 39.5113628,5.70382926 C39.1934539,-0.278967536 44.8509266,9.28510023 39.8292716,13.0423705 C34.8076166,16.7996407 44.293408,19.4376656 44.384757,13.0423705 C44.4761059,6.64707538 53.2325556,15.5016461 48.352274,19.8831637 C45.098753,22.8041755 43.1067174,24.2646814 42.3761675,24.2646814 C44.2778207,28.1547368 47.0680721,27.4269065 50.7469216,22.0811904 C56.2651959,14.0626163 53.1879687,28.670949 49.5260356,29.1993397 C47.0847469,29.5516001 45.0667325,29.7277304 43.4719924,29.7277304 Z" id="Path-94-Copy" fill="url(#linearGradient-4)" transform="translate(40.781441, 18.382601) scale(-1, 1) translate(-40.781441, -18.382601) "></path>
                            <path d="M38.3125162,30.5485886 C36.193454,34.1839132 35.4870999,42.7957257 36.193454,56.3840262" id="Path-95" stroke="#1937A7" stroke-width="1.87357775"></path>
                        </g>
                    </g>
                </g>
            </g>
        </g>
    </g>
</svg>