<svg xmlns="http://www.w3.org/2000/svg" xmlns:xlink="http://www.w3.org/1999/xlink" width="85" height="85" viewBox="0 0 85 85">
  <defs>
    <clipPath id="clip-Artboard_3">
      <rect width="85" height="85"/>
    </clipPath>
  </defs>
  <g id="Artboard_3" data-name="Artboard – 3" clip-path="url(#clip-Artboard_3)">
    <rect width="85" height="85" fill="#fff"/>
    <g id="Group_534" data-name="Group 534" transform="translate(-6364 -9035)">
      <g id="Path_3457" data-name="Path 3457" transform="translate(6369.603 9039.912)" fill="#707070">
        <path d="M 35.09466171264648 69.68932342529297 C 30.42419242858887 69.68932342529297 25.89369201660156 68.77471160888672 21.6290111541748 66.97090911865234 C 17.50956153869629 65.22853088378906 13.80982208251953 62.73405075073242 10.63254165649414 59.55678176879883 C 7.45527172088623 56.37951278686523 4.960801601409912 52.67975997924805 3.218421697616577 48.56031036376953 C 1.41461169719696 44.29563140869141 0.5000017285346985 39.76513290405273 0.5000017285346985 35.09466171264648 C 0.5000017285346985 30.42419242858887 1.41461169719696 25.89369201660156 3.218421697616577 21.6290111541748 C 4.960801601409912 17.50957107543945 7.45527172088623 13.80982208251953 10.63254165649414 10.63254165649414 C 13.80982208251953 7.45527172088623 17.50957107543945 4.960801601409912 21.6290111541748 3.218421697616577 C 25.89369201660156 1.41461169719696 30.42419242858887 0.5000017285346985 35.09466171264648 0.5000017285346985 C 39.76513290405273 0.5000017285346985 44.29563140869141 1.41461169719696 48.56031036376953 3.218421697616577 C 52.67975997924805 4.960801601409912 56.37951278686523 7.45527172088623 59.55678176879883 10.63254165649414 C 62.73405075073242 13.80982208251953 65.22853088378906 17.50956153869629 66.97090911865234 21.6290111541748 C 68.77471160888672 25.89369201660156 69.68932342529297 30.42419242858887 69.68932342529297 35.09466171264648 C 69.68932342529297 39.76513290405273 68.77471160888672 44.29563140869141 66.97090911865234 48.56031036376953 C 65.22853088378906 52.67975997924805 62.73405075073242 56.37951278686523 59.55678176879883 59.55678176879883 C 56.37951278686523 62.73405075073242 52.67975997924805 65.22853088378906 48.56031036376953 66.97090911865234 C 44.29563140869141 68.77471160888672 39.76513290405273 69.68932342529297 35.09466171264648 69.68932342529297 Z" stroke="none"/>
        <path d="M 35.09466171264648 1 C 30.49147033691406 1 26.0265007019043 1.901321411132812 21.82379150390625 3.678924560546875 C 17.76394271850586 5.396095275878906 14.11761093139648 7.854579925537109 10.98610305786133 10.98610305786133 C 7.854579925537109 14.11761093139648 5.396095275878906 17.76394271850586 3.678924560546875 21.82379150390625 C 1.901321411132812 26.0265007019043 1 30.49147033691406 1 35.09466171264648 C 1 39.69785308837891 1.901321411132812 44.16281890869141 3.678924560546875 48.36553955078125 C 5.396095275878906 52.42538452148438 7.854579925537109 56.07171249389648 10.98610305786133 59.20323181152344 C 14.11761093139648 62.33473968505859 17.76394271850586 64.79322814941406 21.82379150390625 66.51039886474609 C 26.0265007019043 68.28800201416016 30.49147033691406 69.18932342529297 35.09466171264648 69.18932342529297 C 39.69785308837891 69.18932342529297 44.16281890869141 68.28800201416016 48.36553955078125 66.51039886474609 C 52.42538452148438 64.79322814941406 56.07171249389648 62.33473968505859 59.20323181152344 59.20323181152344 C 62.33473968505859 56.07171249389648 64.79322814941406 52.42538452148438 66.51039886474609 48.36553955078125 C 68.28800201416016 44.16281890869141 69.18932342529297 39.69785308837891 69.18932342529297 35.09466171264648 C 69.18932342529297 30.49147033691406 68.28800201416016 26.0265007019043 66.51039886474609 21.82379150390625 C 64.79322814941406 17.76394271850586 62.33473968505859 14.11761093139648 59.20323181152344 10.98610305786133 C 56.07171249389648 7.854579925537109 52.42538452148438 5.396095275878906 48.36553955078125 3.678924560546875 C 44.16281890869141 1.901321411132812 39.69785308837891 1 35.09466171264648 1 M 35.09466171264648 0 C 54.47691345214844 0 70.18932342529297 15.71242141723633 70.18932342529297 35.09466171264648 C 70.18932342529297 54.47691345214844 54.47691345214844 70.18932342529297 35.09466171264648 70.18932342529297 C 15.71242141723633 70.18932342529297 0 54.47691345214844 0 35.09466171264648 C 0 15.71242141723633 15.71242141723633 0 35.09466171264648 0 Z" stroke="none" fill="#707070"/>
      </g>
      <path id="Path_3458" data-name="Path 3458" d="M157.616-1206c.7.1,1.391.188,2.085.292a17.532,17.532,0,0,1,8.712,3.56,11.333,11.333,0,0,1,4.166,7.211,11.255,11.255,0,0,1-.693,6.512,12.966,12.966,0,0,1-3.618,4.758c-1.745,1.441-3.558,2.806-5.393,4.132a8.235,8.235,0,0,0-3.256,4.288c-.1.321-.255.623-.386.934-.79,1.882-2.18,2.576-4.459,2.425-2.552-.17-3.92-2.41-3.86-4.687a8.234,8.234,0,0,1,2.911-5.933c1.482-1.375,3.132-2.567,4.655-3.9a27.458,27.458,0,0,0,2.878-2.83c2.258-2.658,1.6-8.108-3.363-8.966a10.168,10.168,0,0,0-3.969.066,6,6,0,0,0-4.109,3.49c-.463.916-.876,1.861-1.385,2.751a4.668,4.668,0,0,1-6.828,1.47,3.78,3.78,0,0,1-1.54-3.406,9.666,9.666,0,0,1,2.1-5.735,16.578,16.578,0,0,1,11.079-6.246c.33-.05.657-.122.986-.184Z" transform="translate(6248.805 10257.058)" fill="#f8f8f8" stroke="#707070" stroke-width="0.8"/>
      <path id="Path_3459" data-name="Path 3459" d="M252.885-802.239a5.508,5.508,0,0,1-5.336,5.5,5.47,5.47,0,0,1-5.625-5.43,5.51,5.51,0,0,1,5.44-5.543A5.545,5.545,0,0,1,252.885-802.239Z" transform="translate(6156.863 9897.218)" fill="#f8f8f8" stroke="#707070" stroke-width="0.8"/>
    </g>
  </g>
</svg>
