<svg xmlns="http://www.w3.org/2000/svg" viewBox="0 0 120 120">
  <defs>
    <filter id="shadow" x="-50%" y="-50%" width="200%" height="200%">
      <feGaussianBlur in="SourceAlpha" stdDeviation="3"/>
      <feOffset dx="0" dy="2"/>
      <feComponentTransfer>
        <feFuncA type="linear" slope="0.2"/>
      </feComponentTransfer>
      <feMerge>
        <feMergeNode/>
        <feMergeNode in="SourceGraphic"/>
      </feMerge>
    </filter>
  </defs>
  <rect x="12" y="20" width="96" height="80" rx="12" fill="#ffffff" filter="url(#shadow)"/>
  <path d="M30 84 C30 84 20 70 20 52 C20 42 30 32 50 32 C70 32 80 42 80 52 C80 70 70 84 50 84 Z" fill="#E2E8F0"/>
  <path d="M50 80 C50 80 34 66 34 52 C34 46 40 40 50 40 C60 40 66 46 66 52 C66 66 50 80 50 80 Z" fill="#ffffff"/>
  <path d="M40 56 L50 46 L60 56 L50 66 L40 56 Z" fill="#38A169"/>
  <path d="M50 36 V42" stroke="#F59E0B" stroke-width="2"/>
  <path d="M40 50 L36 48" stroke="#F59E0B" stroke-width="2"/>
  <path d="M60 50 L64 48" stroke="#F59E0B" stroke-width="2"/>
  <path d="M62 58 L50 46" stroke="#1E4D6B" stroke-width="3" stroke-linecap="round"/>
  <rect x="18" y="88" width="84" height="10" rx="5" fill="#E5E7EB"/>
  <text x="50" y="70" text-anchor="middle" fill="#1E4D6B" font-size="10" font-weight="bold">CREDIT</text>
</svg>
