<svg xmlns="http://www.w3.org/2000/svg" viewBox="0 0 120 120">
  <defs>
    <filter id="shadow" x="-50%" y="-50%" width="200%" height="200%">
      <feGaussianBlur in="SourceAlpha" stdDeviation="3"/>
      <feOffset dx="0" dy="2"/>
      <feComponentTransfer>
        <feFuncA type="linear" slope="0.2"/>
      </feComponentTransfer>
      <feMerge>
        <feMergeNode/>
        <feMergeNode in="SourceGraphic"/>
      </feMerge>
    </filter>
  </defs>
  <rect x="12" y="20" width="96" height="80" rx="12" fill="#ffffff" filter="url(#shadow)"/>
  <ellipse cx="60" cy="74" rx="30" ry="10" fill="#FCD9D0"/>
  <path d="M40 40 C40 28 52 20 60 20 C68 20 80 28 80 40 V66 C80 72 68 78 60 78 C52 78 40 72 40 66 V40 Z" fill="#F5A5A5"/>
  <ellipse cx="60" cy="40" rx="20" ry="10" fill="#FCD9D0"/>
  <circle cx="75" cy="50" r="6" fill="#F5C97E"/>
  <path d="M72 47 L75 50 L80 47" stroke="#1E4D6B" stroke-width="2"/>
  <circle cx="92" cy="32" r="10" fill="#48BB78"/>
  <path d="M89 29 L92 35 L98 33" stroke="#ffffff" stroke-width="2" stroke-linecap="round"/>
</svg>
